<svg width="1469" height="570" viewBox="0 0 1469 570" fill="none" xmlns="http://www.w3.org/2000/svg">
<g filter="url(#filter0_d_2013_19776)">
<g filter="url(#filter1_b_2013_19776)">
<rect x="12" y="67.7305" width="295.677" height="396.953" rx="20" transform="rotate(-10 12 67.7305)" fill="#FFEBEB" fill-opacity="0.03"/>
<rect x="12" y="67.7305" width="295.677" height="396.953" rx="20" transform="rotate(-10 12 67.7305)" fill="url(#paint0_linear_2013_19776)" fill-opacity="0.2"/>
</g>
<g filter="url(#filter2_b_2013_19776)">
<rect x="12" y="67.7305" width="295.677" height="396.953" rx="20" transform="rotate(-10 12 67.7305)" fill="#FFEBEB" fill-opacity="0.03"/>
<rect x="12" y="67.7305" width="295.677" height="396.953" rx="20" transform="rotate(-10 12 67.7305)" fill="url(#paint1_linear_2013_19776)" fill-opacity="0.2"/>
</g>
</g>
<path d="M58.2447 143.795L83.0027 139.43L83.5549 142.562L58.7969 146.927L58.2447 143.795ZM67.9497 137.85L71.8495 137.162L72.7872 142.48L68.8874 143.168L67.9497 137.85ZM60.2857 137.922L79.2531 134.577L79.8001 137.679L60.8327 141.024L60.2857 137.922ZM59.1709 131.599L77.9906 128.281L78.5323 131.353L63.6125 133.984L64.5346 139.214L60.6347 139.901L59.1709 131.599ZM71.3269 146.119C77.2357 145.077 81.1284 146.249 81.6962 149.469C82.264 152.69 79.0069 155.122 73.0981 156.164C67.1893 157.206 63.2671 156.039 62.6992 152.819C62.1314 149.599 65.418 147.161 71.3269 146.119ZM71.8478 149.073C68.1843 149.719 66.4429 150.727 66.6877 152.116C66.9378 153.534 68.9085 153.826 72.5719 153.18C76.2354 152.534 77.9873 151.586 77.7373 150.167C77.4924 148.779 75.5113 148.427 71.8478 149.073ZM90.7878 126.756C94.9535 126.021 98.6338 129.271 99.6861 135.239C100.749 141.266 98.4021 145.579 94.2364 146.314C90.0707 147.048 86.3904 143.798 85.3276 137.771C84.2753 131.803 86.622 127.49 90.7878 126.756ZM91.4181 130.33C89.3795 130.69 88.4008 133.086 89.1093 137.104C89.8282 141.181 91.5727 143.128 93.6113 142.768C95.6498 142.409 96.6529 139.978 95.934 135.901C95.2255 131.883 93.4567 129.971 91.4181 130.33ZM100.618 123.073L104.576 122.375L109.4 149.733L105.442 150.431L100.618 123.073ZM105.508 132.842L110.354 131.987L110.927 135.237L106.081 136.092L105.508 132.842ZM129.15 118.011L133.079 117.318L137.919 144.765L133.989 145.458L129.15 118.011ZM114.929 138.949L117.352 138.521C122.197 137.667 126.036 136.807 130.249 135.303L131.191 138.396C126.9 139.976 122.908 140.832 117.915 141.712L115.492 142.139L114.929 138.949ZM112.16 123.414L125.071 121.137L126.936 131.714L118.043 133.282L119.126 139.427L115.138 140.13L113.507 130.883L122.371 129.32L121.605 124.977L112.712 126.545L112.16 123.414Z" fill="black"/>
<path d="M58.1579 109.755C58.2436 110.241 58.4227 110.643 58.6953 110.96C58.9656 111.265 59.302 111.483 59.7043 111.615C60.1199 111.745 60.5443 111.772 60.9776 111.695C61.3453 111.63 61.684 111.516 61.9937 111.353C62.3143 111.175 62.5951 110.963 62.8361 110.718C63.0902 110.47 63.2837 110.185 63.4166 109.864L63.9272 112.759C63.656 113.064 63.298 113.337 62.8531 113.578C62.4058 113.806 61.8408 113.98 61.158 114.1C60.1601 114.276 59.2259 114.238 58.3554 113.985C57.4981 113.73 56.7772 113.289 56.1926 112.661C55.6211 112.03 55.252 111.242 55.0853 110.297C54.9163 109.339 54.9937 108.472 55.3174 107.697C55.6519 106.907 56.1784 106.246 56.8968 105.713C57.6283 105.178 58.493 104.822 59.491 104.646C60.1738 104.526 60.7654 104.503 61.2659 104.577C61.7641 104.638 62.1904 104.752 62.5449 104.92L63.0589 107.835C62.8242 107.579 62.5384 107.379 62.2017 107.235C61.8781 107.089 61.5363 106.993 61.1764 106.948C60.8165 106.904 60.4724 106.91 60.1441 106.968C59.7108 107.044 59.3222 107.221 58.9785 107.498C58.6479 107.773 58.4088 108.107 58.2612 108.498C58.1136 108.89 58.0792 109.309 58.1579 109.755ZM63.479 97.6473L66.4729 97.1194L69.1818 112.482L66.188 113.01L63.479 97.6473ZM73.9835 107.98C74.0762 108.505 74.2476 108.902 74.4978 109.169C74.7457 109.423 75.1125 109.507 75.5984 109.422C75.9267 109.364 76.1908 109.25 76.3909 109.079C76.6041 108.906 76.7544 108.683 76.8417 108.41C76.929 108.138 76.9414 107.824 76.8789 107.47L75.9064 101.955L78.8806 101.43L80.4781 110.491L77.504 111.015L77.2644 109.656C77.0743 110.19 76.7815 110.641 76.386 111.009C75.9882 111.364 75.4544 111.6 74.7848 111.718C73.6555 111.917 72.775 111.761 72.1433 111.249C71.5224 110.723 71.117 109.921 70.9271 108.844L69.8991 103.014L73.0111 102.465L73.9835 107.98ZM83.0713 94.1927L85.7802 109.556L82.8061 110.08L80.0972 94.7171L83.0713 94.1927ZM92.3872 103.72C92.5655 104.731 92.5071 105.628 92.2119 106.411C91.9276 107.179 91.4895 107.804 90.8978 108.288C90.3192 108.769 89.6557 109.075 88.9073 109.207C88.1588 109.339 87.4556 109.267 86.7975 108.99C86.1395 108.714 85.5773 108.251 85.1109 107.602C84.6444 106.953 84.3256 106.143 84.1542 105.171C83.9806 104.187 84.0031 103.316 84.2218 102.56C84.4382 101.791 84.8082 101.164 85.332 100.679C85.8557 100.194 86.4918 99.8852 87.2402 99.7532C87.9887 99.6213 88.717 99.6824 89.4253 99.9366C90.1466 100.188 90.7722 100.627 91.302 101.251C91.8449 101.873 92.2066 102.696 92.3872 103.72ZM89.2555 104.272C89.1722 103.799 89.0019 103.41 88.7448 103.103C88.4853 102.783 88.1752 102.56 87.8145 102.434C87.4515 102.295 87.0731 102.26 86.6791 102.33C86.3377 102.39 86.0191 102.541 85.7233 102.783C85.4405 103.022 85.2254 103.338 85.0778 103.729C84.9279 104.108 84.8958 104.54 84.9815 105.026C85.0671 105.511 85.2463 105.913 85.5189 106.231C85.7892 106.535 86.0981 106.751 86.4456 106.879C86.8063 107.005 87.1574 107.038 87.4988 106.978C87.8927 106.909 88.2376 106.753 88.5334 106.511C88.827 106.256 89.0421 105.941 89.1789 105.565C89.3133 105.176 89.3389 104.745 89.2555 104.272Z" fill="#9E9C9C"/>
<path d="M157.529 219.281C156.978 216.159 158.669 213.16 160.992 211.005C164.595 207.669 166.483 203.114 165.673 198.516C164.281 190.624 155.458 185.576 145.978 187.248C136.498 188.92 129.933 196.681 131.325 204.573C132.152 209.262 135.599 212.947 140.249 214.816C143.044 215.939 145.511 218.075 146.031 221.025C146.193 221.921 146.171 222.84 145.966 223.727C145.761 224.614 145.377 225.449 144.838 226.183C144.299 226.917 143.617 227.534 142.831 227.996C142.046 228.457 141.175 228.755 140.272 228.869C131.673 229.914 123.102 230.718 114.56 231.28C113.273 231.363 112.02 231.73 110.892 232.354C109.764 232.979 108.788 233.845 108.035 234.892C107.283 235.938 106.772 237.138 106.539 238.405C106.306 239.673 106.358 240.976 106.69 242.22C108.998 250.823 111.057 259.553 112.875 268.395C113.058 269.308 113.056 270.248 112.87 271.16C112.683 272.072 112.315 272.938 111.788 273.705C111.261 274.473 110.585 275.128 109.801 275.631C109.016 276.134 108.139 276.474 107.221 276.633C104.152 277.174 101.18 275.516 99.0625 273.213C95.7437 269.588 91.1561 267.673 86.5191 268.491C78.6191 269.884 73.5626 278.7 75.2323 288.17C76.9019 297.64 84.6687 304.196 92.5687 302.802C97.1942 301.987 100.852 298.629 102.752 294.072C103.943 291.185 106.158 288.613 109.249 288.068C110.165 287.905 111.105 287.926 112.013 288.131C112.921 288.336 113.778 288.721 114.535 289.262C115.292 289.804 115.932 290.491 116.419 291.283C116.905 292.076 117.228 292.958 117.368 293.877C119.24 306.552 120.578 319.299 121.378 332.087C121.522 334.391 122.576 336.544 124.309 338.071C126.041 339.599 128.31 340.377 130.617 340.234C140.262 339.629 149.948 338.723 159.652 337.519C160.527 337.406 161.37 337.117 162.129 336.669C162.889 336.222 163.55 335.624 164.071 334.913C164.593 334.203 164.965 333.394 165.164 332.535C165.363 331.677 165.386 330.787 165.23 329.92C164.684 326.82 162.083 324.59 159.178 323.381C154.652 321.478 151.294 317.837 150.482 313.227C149.09 305.336 155.655 297.574 165.135 295.902C174.615 294.231 183.438 299.279 184.83 307.17C185.642 311.78 183.733 316.35 180.128 319.674C177.814 321.816 176.133 324.801 176.679 327.901L176.901 329.159C177.462 332.338 180.471 334.473 183.642 333.914C197.336 331.499 210.798 328.512 224 324.981C225.94 324.462 227.642 323.29 228.818 321.662C229.994 320.034 230.571 318.051 230.452 316.048C229.624 302.314 228.192 288.497 226.142 274.66C226.002 273.744 225.68 272.864 225.194 272.074C224.709 271.284 224.069 270.6 223.314 270.061C222.558 269.522 221.702 269.141 220.796 268.938C219.891 268.736 218.953 268.717 218.04 268.883C214.949 269.429 212.715 272.028 211.504 274.93C209.6 279.464 205.951 282.808 201.337 283.622C193.437 285.015 185.67 278.46 184.001 268.99C182.331 259.52 187.387 250.703 195.287 249.31C199.902 248.496 204.476 250.402 207.802 254.002C209.945 256.313 212.932 257.991 216.035 257.444C216.948 257.287 217.82 256.948 218.6 256.449C219.38 255.949 220.052 255.299 220.576 254.536C221.101 253.773 221.467 252.913 221.654 252.007C221.84 251.1 221.844 250.166 221.663 249.258C219.829 240.272 217.734 231.34 215.383 222.475C215.089 221.365 214.578 220.324 213.88 219.412C213.182 218.5 212.31 217.734 211.315 217.16C210.319 216.586 209.22 216.214 208.08 216.066C206.94 215.918 205.782 215.997 204.672 216.298C191.417 219.884 178.008 222.874 164.485 225.26C163.731 225.391 162.958 225.373 162.21 225.205C161.463 225.038 160.756 224.725 160.13 224.285C159.505 223.844 158.972 223.284 158.563 222.638C158.154 221.991 157.876 221.27 157.746 220.516L157.529 219.281Z" fill="url(#paint2_linear_2013_19776)"/>
<path d="M196.506 299.13C193.384 299.68 190.386 297.989 188.231 295.666C184.895 292.063 180.341 290.174 175.744 290.985C167.853 292.376 162.805 301.2 164.477 310.681C166.148 320.162 173.909 326.727 181.8 325.336C186.489 324.509 190.173 321.061 192.042 316.41C193.164 313.615 195.3 311.149 198.251 310.628C199.146 310.466 200.065 310.488 200.952 310.693C201.839 310.898 202.674 311.282 203.408 311.821C204.142 312.36 204.759 313.043 205.22 313.828C205.682 314.613 205.979 315.484 206.094 316.388C207.138 324.988 207.942 333.559 208.505 342.102C208.587 343.389 208.954 344.642 209.578 345.77C210.203 346.899 211.069 347.874 212.116 348.627C213.162 349.38 214.362 349.891 215.629 350.124C216.896 350.356 218.199 350.305 219.444 349.972C228.046 347.665 236.774 345.606 245.616 343.787C246.529 343.604 247.469 343.606 248.381 343.793C249.293 343.979 250.158 344.347 250.926 344.874C251.694 345.401 252.348 346.077 252.851 346.862C253.354 347.646 253.695 348.523 253.853 349.442C254.394 352.51 252.737 355.483 250.433 357.601C246.809 360.92 244.894 365.508 245.712 370.145C247.105 378.046 255.92 383.103 265.389 381.433C274.859 379.764 281.413 371.996 280.02 364.095C279.205 359.469 275.848 355.811 271.291 353.911C268.404 352.72 265.832 350.505 265.287 347.414C265.124 346.497 265.145 345.557 265.35 344.649C265.555 343.741 265.94 342.884 266.481 342.127C267.023 341.37 267.71 340.73 268.502 340.243C269.295 339.757 270.177 339.434 271.096 339.294C283.769 337.421 296.516 336.083 309.302 335.284C311.606 335.139 313.758 334.085 315.286 332.352C316.814 330.62 317.591 328.35 317.448 326.043C316.844 316.398 315.938 306.711 314.734 297.006C314.621 296.131 314.332 295.288 313.884 294.528C313.436 293.769 312.839 293.108 312.128 292.586C311.418 292.065 310.609 291.693 309.75 291.494C308.892 291.294 308.002 291.272 307.135 291.427C304.036 291.974 301.806 294.575 300.597 297.48C298.694 302.007 295.053 305.364 290.444 306.177C282.553 307.568 274.792 301.003 273.121 291.522C271.449 282.041 276.497 273.217 284.388 271.826C288.997 271.013 293.567 272.923 296.891 276.528C299.032 278.842 302.017 280.523 305.116 279.977L306.374 279.755C309.554 279.194 311.688 276.185 311.129 273.014C308.714 259.319 305.727 245.855 302.197 232.652C301.678 230.712 300.506 229.009 298.878 227.834C297.251 226.658 295.268 226.08 293.265 226.199C279.532 227.027 265.717 228.46 251.881 230.51C250.964 230.65 250.085 230.972 249.295 231.458C248.505 231.943 247.82 232.583 247.282 233.338C246.743 234.094 246.362 234.95 246.159 235.856C245.957 236.762 245.938 237.699 246.104 238.612C246.65 241.704 249.248 243.938 252.151 245.15C256.684 247.054 260.028 250.703 260.841 255.317C262.234 263.218 255.68 270.985 246.211 272.655C236.741 274.325 227.926 269.268 226.533 261.367C225.719 256.753 227.625 252.178 231.224 248.852C233.535 246.709 235.213 243.721 234.666 240.618C234.509 239.705 234.17 238.833 233.671 238.053C233.171 237.273 232.521 236.601 231.758 236.076C230.995 235.552 230.135 235.185 229.229 234.998C228.323 234.812 227.388 234.809 226.481 234.989C217.495 236.824 208.565 238.918 199.701 241.27C198.59 241.564 197.549 242.074 196.637 242.773C195.725 243.471 194.96 244.343 194.386 245.338C193.812 246.334 193.44 247.433 193.292 248.573C193.144 249.714 193.223 250.872 193.524 251.982C197.109 265.238 200.099 278.648 202.485 292.172C202.616 292.927 202.598 293.7 202.43 294.447C202.263 295.194 201.95 295.901 201.51 296.527C201.069 297.153 200.509 297.686 199.863 298.095C199.216 298.504 198.495 298.782 197.742 298.912L196.506 299.13Z" fill="#FFCEDD" fill-opacity="0.6"/>
<path d="M196.506 299.13C193.384 299.68 190.386 297.989 188.231 295.666C184.895 292.063 180.341 290.174 175.744 290.985C167.853 292.376 162.805 301.2 164.477 310.681C166.148 320.162 173.909 326.727 181.8 325.336C186.489 324.509 190.173 321.061 192.042 316.41C193.164 313.615 195.3 311.149 198.251 310.628C199.146 310.466 200.065 310.488 200.952 310.693C201.839 310.898 202.674 311.282 203.408 311.821C204.142 312.36 204.759 313.043 205.22 313.828C205.682 314.613 205.979 315.484 206.094 316.388C207.138 324.988 207.942 333.559 208.505 342.102C208.587 343.389 208.954 344.642 209.578 345.77C210.203 346.899 211.069 347.874 212.116 348.627C213.162 349.38 214.362 349.891 215.629 350.124C216.896 350.356 218.199 350.305 219.444 349.972C228.046 347.665 236.774 345.606 245.616 343.787C246.529 343.604 247.469 343.606 248.381 343.793C249.293 343.979 250.158 344.347 250.926 344.874C251.694 345.401 252.348 346.077 252.851 346.862C253.354 347.646 253.695 348.523 253.853 349.442C254.394 352.51 252.737 355.483 250.433 357.601C246.809 360.92 244.894 365.508 245.712 370.145C247.105 378.046 255.92 383.103 265.389 381.433C274.859 379.764 281.413 371.996 280.02 364.095C279.205 359.469 275.848 355.811 271.291 353.911C268.404 352.72 265.832 350.505 265.287 347.414C265.124 346.497 265.145 345.557 265.35 344.649C265.555 343.741 265.94 342.884 266.481 342.127C267.023 341.37 267.71 340.73 268.502 340.243C269.295 339.757 270.177 339.434 271.096 339.294C283.769 337.421 296.516 336.083 309.302 335.284C311.606 335.139 313.758 334.085 315.286 332.352C316.814 330.62 317.591 328.35 317.448 326.043C316.844 316.398 315.938 306.711 314.734 297.006C314.621 296.131 314.332 295.288 313.884 294.528C313.436 293.769 312.839 293.108 312.128 292.586C311.418 292.065 310.609 291.693 309.75 291.494C308.892 291.294 308.002 291.272 307.135 291.427C304.036 291.974 301.806 294.575 300.597 297.48C298.694 302.007 295.053 305.364 290.444 306.177C282.553 307.568 274.792 301.003 273.121 291.522C271.449 282.041 276.497 273.217 284.388 271.826C288.997 271.013 293.567 272.923 296.891 276.528C299.032 278.842 302.017 280.523 305.116 279.977L306.374 279.755C309.554 279.194 311.688 276.185 311.129 273.014C308.714 259.319 305.727 245.855 302.197 232.652C301.678 230.712 300.506 229.009 298.878 227.834C297.251 226.658 295.268 226.08 293.265 226.199C279.532 227.027 265.717 228.46 251.881 230.51C250.964 230.65 250.085 230.972 249.295 231.458C248.505 231.943 247.82 232.583 247.282 233.338C246.743 234.094 246.362 234.95 246.159 235.856C245.957 236.762 245.938 237.699 246.104 238.612C246.65 241.704 249.248 243.938 252.151 245.15C256.684 247.054 260.028 250.703 260.841 255.317C262.234 263.218 255.68 270.985 246.211 272.655C236.741 274.325 227.926 269.268 226.533 261.367C225.719 256.753 227.625 252.178 231.224 248.852C233.535 246.709 235.213 243.721 234.666 240.618C234.509 239.705 234.17 238.833 233.671 238.053C233.171 237.273 232.521 236.601 231.758 236.076C230.995 235.552 230.135 235.185 229.229 234.998C228.323 234.812 227.388 234.809 226.481 234.989C217.495 236.824 208.565 238.918 199.701 241.27C198.59 241.564 197.549 242.074 196.637 242.773C195.725 243.471 194.96 244.343 194.386 245.338C193.812 246.334 193.44 247.433 193.292 248.573C193.144 249.714 193.223 250.872 193.524 251.982C197.109 265.238 200.099 278.648 202.485 292.172C202.616 292.927 202.598 293.7 202.43 294.447C202.263 295.194 201.95 295.901 201.51 296.527C201.069 297.153 200.509 297.686 199.863 298.095C199.216 298.504 198.495 298.782 197.742 298.912L196.506 299.13Z" fill="url(#paint3_linear_2013_19776)"/>
<g filter="url(#filter3_bd_2013_19776)">
<g filter="url(#filter4_d_2013_19776)">
<g opacity="0.1" filter="url(#filter5_d_2013_19776)">
<g filter="url(#filter6_b_2013_19776)">
<rect x="352.797" y="62.3867" width="295.677" height="396.953" rx="20" transform="rotate(10.7964 352.797 62.3867)" fill="#FDB6B6" fill-opacity="0.04"/>
<rect x="352.797" y="62.3867" width="295.677" height="396.953" rx="20" transform="rotate(10.7964 352.797 62.3867)" fill="url(#paint4_linear_2013_19776)" fill-opacity="0.2"/>
</g>
<g filter="url(#filter7_b_2013_19776)">
<rect x="352.797" y="62.3867" width="295.677" height="396.953" rx="20" transform="rotate(10.7964 352.797 62.3867)" fill="#FDB6B6" fill-opacity="0.04"/>
<rect x="352.797" y="62.3867" width="295.677" height="396.953" rx="20" transform="rotate(10.7964 352.797 62.3867)" fill="url(#paint5_linear_2013_19776)" fill-opacity="0.5"/>
</g>
</g>
</g>
<path d="M378.881 161.451L382.012 162.004L381.471 165.076C381.193 166.652 380.753 168.169 380.15 169.626C379.568 171.087 378.833 172.43 377.947 173.655C377.084 174.863 376.08 175.895 374.934 176.749C373.792 177.583 372.529 178.183 371.144 178.548L369.446 175.05C370.682 174.719 371.798 174.205 372.795 173.508C373.811 172.814 374.686 171.993 375.422 171.047C376.181 170.084 376.8 169.046 377.281 167.932C377.785 166.802 378.137 165.666 378.339 164.524L378.881 161.451ZM379.737 161.603L382.84 162.15L382.298 165.222C382.107 166.305 382.05 167.433 382.128 168.604C382.229 169.759 382.467 170.887 382.841 171.989C383.219 173.071 383.762 174.081 384.47 175.018C385.178 175.955 386.071 176.763 387.15 177.44L384.441 180.192C383.242 179.391 382.245 178.423 381.45 177.288C380.655 176.153 380.043 174.898 379.616 173.522C379.188 172.147 378.943 170.713 378.882 169.22C378.824 167.707 378.928 166.192 379.196 164.675L379.737 161.603ZM373.451 158.727L388.814 161.436L388.241 164.686L372.878 161.977L373.451 158.727ZM391.813 159.284L395.743 159.977L390.919 187.335L386.989 186.642L391.813 159.284ZM404.877 176.058L408.806 176.75L407.754 182.718L403.825 182.025L404.877 176.058ZM419.322 164.104L423.251 164.797L419.594 185.537L415.665 184.844L419.322 164.104ZM399.357 185.076L419.683 188.66L419.126 191.821L398.8 188.237L399.357 185.076ZM400.237 180.083L404.167 180.776L403.135 186.626L399.206 185.933L400.237 180.083ZM397.932 176.052L397.982 172.831C399.66 173.107 401.485 173.408 403.458 173.736C405.435 174.044 407.458 174.319 409.527 174.562C411.596 174.805 413.597 174.975 415.53 175.072L415.301 177.926C413.292 177.917 411.257 177.822 409.197 177.642C407.161 177.445 405.183 177.198 403.266 176.901C401.349 176.603 399.571 176.32 397.932 176.052ZM411.379 179.093L417.406 180.155L416.932 182.844L410.905 181.781L411.379 179.093ZM408.756 163.216C410.095 163.452 411.24 163.867 412.192 164.462C413.143 165.056 413.84 165.768 414.283 166.597C414.745 167.43 414.889 168.339 414.716 169.324C414.545 170.289 414.099 171.094 413.376 171.738C412.676 172.366 411.78 172.787 410.686 173C409.592 173.213 408.376 173.202 407.037 172.966C405.697 172.729 404.54 172.322 403.566 171.744C402.611 171.17 401.912 170.468 401.47 169.638C401.031 168.789 400.896 167.882 401.066 166.917C401.24 165.932 401.677 165.126 402.376 164.498C403.076 163.87 403.974 163.439 405.071 163.206C406.188 162.977 407.416 162.98 408.756 163.216ZM408.25 166.082C407.344 165.922 406.566 165.957 405.916 166.188C405.286 166.422 404.91 166.884 404.789 167.573C404.674 168.223 404.871 168.776 405.38 169.231C405.912 169.67 406.631 169.97 407.537 170.129C408.462 170.293 409.231 170.255 409.841 170.018C410.475 169.764 410.849 169.312 410.964 168.662C411.043 168.209 410.981 167.812 410.777 167.472C410.573 167.131 410.259 166.842 409.834 166.605C409.408 166.367 408.881 166.193 408.25 166.082Z" fill="black"/>
<path d="M378.807 134.252C378.765 134.488 378.788 134.702 378.876 134.893C378.967 135.072 379.102 135.224 379.283 135.351C379.466 135.465 379.676 135.542 379.912 135.584C380.254 135.644 380.581 135.627 380.896 135.534C381.21 135.44 381.485 135.265 381.72 135.009C381.954 134.752 382.109 134.414 382.183 133.994L382.29 135.231C382.188 135.809 381.943 136.274 381.556 136.625C381.172 136.964 380.711 137.194 380.175 137.316C379.642 137.425 379.086 137.428 378.508 137.327C377.931 137.225 377.411 137.025 376.949 136.727C376.502 136.418 376.166 136.02 375.941 135.533C375.728 135.049 375.676 134.498 375.785 133.881C375.938 133.015 376.367 132.386 377.072 131.996C377.78 131.593 378.698 131.491 379.827 131.69C380.379 131.787 380.862 131.926 381.277 132.108C381.704 132.292 382.062 132.49 382.349 132.703C382.637 132.916 382.844 133.122 382.972 133.321L382.739 134.64C382.466 134.348 382.129 134.106 381.73 133.914C381.346 133.711 380.924 133.569 380.465 133.488C380.11 133.425 379.821 133.415 379.597 133.457C379.373 133.498 379.194 133.589 379.062 133.728C378.931 133.854 378.846 134.028 378.807 134.252ZM378.095 130.572L377.441 128.406C377.997 128.247 378.656 128.119 379.418 128.023C380.179 127.927 380.987 127.955 381.84 128.105C382.641 128.246 383.336 128.491 383.925 128.838C384.515 129.172 384.957 129.589 385.248 130.087C385.539 130.585 385.629 131.149 385.518 131.779L384.393 138.161L381.537 137.657L382.544 131.946C382.583 131.722 382.578 131.525 382.527 131.354C382.491 131.171 382.411 131.008 382.288 130.865C382.164 130.721 381.995 130.603 381.781 130.511C381.581 130.422 381.342 130.353 381.067 130.304C380.66 130.232 380.251 130.208 379.841 130.23C379.444 130.255 379.089 130.307 378.777 130.388C378.468 130.455 378.24 130.516 378.095 130.572ZM388.81 143.408L385.836 142.883L388.198 129.49L391.172 130.014L388.81 143.408ZM397.779 135.85C397.593 136.901 397.227 137.75 396.679 138.398C396.145 139.049 395.517 139.5 394.796 139.752C394.088 140.006 393.359 140.067 392.611 139.935C391.823 139.796 391.175 139.479 390.667 138.983C390.174 138.476 389.84 137.835 389.665 137.06C389.493 136.271 389.492 135.391 389.664 134.42C389.837 133.435 390.139 132.608 390.568 131.939C390.998 131.27 391.529 130.788 392.163 130.494C392.813 130.189 393.532 130.106 394.32 130.245C395.068 130.377 395.731 130.683 396.31 131.164C396.902 131.648 397.337 132.286 397.617 133.08C397.912 133.863 397.966 134.787 397.779 135.85ZM394.647 135.298C394.73 134.825 394.702 134.408 394.563 134.045C394.424 133.682 394.206 133.386 393.907 133.157C393.609 132.929 393.263 132.78 392.869 132.71C392.528 132.65 392.178 132.676 391.82 132.789C391.477 132.891 391.171 133.088 390.903 133.379C390.635 133.67 390.459 134.059 390.373 134.545C390.287 135.03 390.32 135.456 390.473 135.821C390.625 136.187 390.844 136.482 391.129 136.709C391.429 136.924 391.75 137.062 392.091 137.122C392.485 137.192 392.861 137.17 393.22 137.057C393.578 136.944 393.885 136.741 394.14 136.448C394.394 136.154 394.564 135.771 394.647 135.298ZM400.966 145.551L397.992 145.027L400.354 131.633L403.328 132.158L400.966 145.551ZM409.935 137.994C409.75 139.044 409.383 139.894 408.836 140.542C408.301 141.192 407.673 141.643 406.952 141.895C406.244 142.149 405.515 142.21 404.767 142.079C403.979 141.94 403.331 141.622 402.823 141.126C402.33 140.62 401.996 139.979 401.822 139.203C401.649 138.415 401.649 137.535 401.82 136.563C401.994 135.578 402.295 134.751 402.725 134.082C403.154 133.413 403.686 132.932 404.32 132.637C404.969 132.332 405.688 132.249 406.476 132.388C407.224 132.52 407.888 132.827 408.466 133.308C409.058 133.791 409.494 134.43 409.773 135.224C410.069 136.007 410.122 136.93 409.935 137.994ZM406.803 137.442C406.887 136.969 406.859 136.551 406.72 136.188C406.58 135.825 406.362 135.529 406.064 135.301C405.766 135.072 405.419 134.923 405.026 134.854C404.684 134.793 404.334 134.82 403.976 134.933C403.633 135.035 403.328 135.231 403.06 135.522C402.792 135.814 402.615 136.202 402.529 136.688C402.443 137.174 402.477 137.599 402.629 137.965C402.781 138.33 403 138.626 403.285 138.852C403.585 139.068 403.906 139.205 404.248 139.266C404.642 139.335 405.018 139.313 405.376 139.201C405.734 139.088 406.041 138.885 406.296 138.591C406.551 138.297 406.72 137.914 406.803 137.442ZM413.641 127.478L416.635 128.006L413.926 143.369L410.932 142.841L413.641 127.478ZM427.115 136.352L418.845 148.704L415.851 148.176L418.95 143.503L416.499 134.48L419.769 135.057L421.422 142.842L419.889 142.552L424.062 135.814L427.115 136.352Z" fill="#9E9C9C"/>
<path d="M373.16 289.818C374.407 282.747 381.149 278.026 388.22 279.273L511.321 300.979C518.392 302.226 523.113 308.968 521.866 316.039L507.453 397.778C506.494 403.217 501.308 406.849 495.869 405.89L366.859 383.142C361.42 382.183 357.788 376.996 358.747 371.557L373.16 289.818Z" fill="url(#paint6_linear_2013_19776)"/>
<g filter="url(#filter8_b_2013_19776)">
<path d="M382.537 236.637C383.496 231.198 388.683 227.567 394.122 228.526L523.132 251.273C528.571 252.232 532.202 257.419 531.243 262.858L515.268 353.46C514.309 358.899 509.122 362.531 503.683 361.572L374.673 338.824C369.234 337.865 365.603 332.678 366.562 327.239L382.537 236.637Z" fill="#FFBABA" fill-opacity="0.5"/>
<path d="M382.537 236.637C383.496 231.198 388.683 227.567 394.122 228.526L523.132 251.273C528.571 252.232 532.202 257.419 531.243 262.858L515.268 353.46C514.309 358.899 509.122 362.531 503.683 361.572L374.673 338.824C369.234 337.865 365.603 332.678 366.562 327.239L382.537 236.637Z" fill="url(#paint7_linear_2013_19776)" fill-opacity="0.2"/>
</g>
<path d="M488.514 281.483C488.906 279.264 487.424 277.148 485.205 276.756L420.81 265.402C418.591 265.011 416.475 266.492 416.083 268.711C415.692 270.93 417.174 273.047 419.393 273.438L483.788 284.792C486.007 285.184 488.123 283.702 488.514 281.483Z" fill="url(#paint8_linear_2013_19776)"/>
<path d="M483.597 309.37C483.988 307.151 482.506 305.034 480.287 304.643L415.892 293.289C413.673 292.897 411.557 294.379 411.166 296.598C410.774 298.817 412.256 300.933 414.475 301.325L478.87 312.679C481.089 313.07 483.205 311.589 483.597 309.37Z" fill="url(#paint9_linear_2013_19776)"/>
<path d="M525.924 348.899C531.516 342.787 541.365 341.935 547.924 346.997L550.126 348.696C556.684 353.758 557.467 362.816 551.875 368.928L546.821 374.452C544.957 376.49 541.674 376.773 539.487 375.086L521.452 361.167C519.266 359.48 519.005 356.461 520.869 354.424L525.924 348.899Z" fill="url(#paint10_linear_2013_19776)"/>
<path d="M478.662 412.402L492.069 422.75L479.145 428.84L474.835 425.514L478.662 412.402Z" fill="url(#paint11_linear_2013_19776)"/>
<g filter="url(#filter9_b_2013_19776)">
<path d="M521.012 353.755C522.876 351.718 526.159 351.434 528.345 353.121L546.949 367.479C549.136 369.166 549.397 372.186 547.533 374.223L510.484 414.716L483.964 394.249L521.012 353.755Z" fill="#FD82AA" fill-opacity="0.5"/>
</g>
<g filter="url(#filter10_b_2013_19776)">
<path d="M483.965 394.25L510.485 414.718L491.927 422.638L478.667 412.404L483.965 394.25Z" fill="#FFBABA" fill-opacity="0.5"/>
</g>
</g>
<g filter="url(#filter11_bd_2013_19776)">
<g opacity="0.1" filter="url(#filter12_d_2013_19776)">
<g filter="url(#filter13_b_2013_19776)">
<rect x="592" y="25.3867" width="295.677" height="396.953" rx="20" fill="#FDB6B6" fill-opacity="0.04"/>
<rect x="592" y="25.3867" width="295.677" height="396.953" rx="20" fill="url(#paint12_linear_2013_19776)" fill-opacity="0.2"/>
</g>
<g filter="url(#filter14_b_2013_19776)">
<rect x="592" y="25.3867" width="295.677" height="396.953" rx="20" fill="#FDB6B6" fill-opacity="0.04"/>
<rect x="592" y="25.3867" width="295.677" height="396.953" rx="20" fill="url(#paint13_linear_2013_19776)" fill-opacity="0.5"/>
</g>
</g>
<path d="M638.542 100.627H645.532V103.807H638.542V100.627ZM638.542 106.597H645.652V109.777H638.542V106.597ZM626.242 98.4967H639.382V112.087H626.242V98.4967ZM635.482 101.617H630.172V108.937H635.482V101.617ZM644.362 96.2767H648.382V116.497H644.362V96.2767ZM629.992 120.367H648.982V123.577H629.992V120.367ZM629.992 114.607H633.982V122.047H629.992V114.607ZM667.76 102.487H673.01V105.697H667.76V102.487ZM671.96 96.2767H675.95V111.457H671.96V96.2767ZM657.53 112.567H661.49V115.117H672.02V112.567H675.95V123.757H657.53V112.567ZM661.49 118.177V120.547H672.02V118.177H661.49ZM659.15 98.4067H662.39V100.177C662.39 101.917 662.11 103.577 661.55 105.157C660.99 106.737 660.13 108.117 658.97 109.297C657.83 110.477 656.36 111.367 654.56 111.967L652.58 108.817C653.72 108.417 654.7 107.917 655.52 107.317C656.36 106.717 657.04 106.027 657.56 105.247C658.1 104.467 658.5 103.647 658.76 102.787C659.02 101.927 659.15 101.057 659.15 100.177V98.4067ZM659.99 98.4067H663.17V100.147C663.17 101.227 663.39 102.307 663.83 103.387C664.27 104.447 664.95 105.407 665.87 106.267C666.81 107.127 668.01 107.807 669.47 108.307L667.52 111.427C665.8 110.847 664.38 109.987 663.26 108.847C662.16 107.707 661.34 106.387 660.8 104.887C660.26 103.387 659.99 101.807 659.99 100.147V98.4067ZM653.66 97.5367H668.6V100.687H653.66V97.5367Z" fill="black"/>
<path d="M625.924 68.7267C625.924 68.2467 626.097 67.8601 626.444 67.5667C626.79 67.2601 627.204 67.1067 627.684 67.1067C628.177 67.1067 628.59 67.2601 628.924 67.5667C629.27 67.8601 629.444 68.2467 629.444 68.7267C629.444 69.2067 629.27 69.6001 628.924 69.9067C628.59 70.2134 628.177 70.3667 627.684 70.3667C627.204 70.3667 626.79 70.2134 626.444 69.9067C626.097 69.6001 625.924 69.2067 625.924 68.7267ZM626.224 72.1867H629.144V81.3867H626.224V72.1867ZM637.611 75.7867C637.611 75.2401 637.505 74.8201 637.291 74.5267C637.091 74.2334 636.751 74.0867 636.271 74.0867C635.951 74.0867 635.671 74.1534 635.431 74.2867C635.191 74.4201 635.005 74.6134 634.871 74.8667C634.738 75.1201 634.671 75.4267 634.671 75.7867V81.3867H631.631V72.1867H634.671V73.5667C634.938 73.0601 635.298 72.6667 635.751 72.3867C636.218 72.1067 636.791 71.9667 637.471 71.9667C638.618 71.9667 639.451 72.2734 639.971 72.8867C640.491 73.5001 640.751 74.3601 640.751 75.4667V81.3867H637.611V75.7867ZM642.055 72.1867H648.215V74.6867H642.055V72.1867ZM643.675 68.9867H646.575V81.3867H643.675V68.9867ZM654.182 81.5867C653.116 81.5867 652.189 81.3934 651.402 81.0067C650.629 80.6067 650.029 80.0467 649.602 79.3267C649.176 78.6067 648.962 77.7601 648.962 76.7867C648.962 75.8001 649.169 74.9467 649.582 74.2267C649.996 73.5067 650.589 72.9534 651.362 72.5667C652.149 72.1801 653.076 71.9867 654.142 71.9867C655.209 71.9867 656.109 72.1734 656.842 72.5467C657.576 72.9067 658.136 73.4334 658.522 74.1267C658.909 74.8201 659.102 75.6601 659.102 76.6467C659.102 76.7934 659.102 76.9401 659.102 77.0867C659.102 77.2201 659.089 77.3334 659.062 77.4267H650.662V75.7467H656.342L655.622 76.6667C655.689 76.5734 655.742 76.4601 655.782 76.3267C655.836 76.1801 655.862 76.0601 655.862 75.9667C655.862 75.5667 655.789 75.2201 655.642 74.9267C655.496 74.6334 655.289 74.4067 655.022 74.2467C654.756 74.0867 654.442 74.0067 654.082 74.0067C653.629 74.0067 653.249 74.1067 652.942 74.3067C652.636 74.5067 652.402 74.8134 652.242 75.2267C652.096 75.6267 652.016 76.1334 652.002 76.7467C652.002 77.3067 652.082 77.7867 652.242 78.1867C652.402 78.5867 652.642 78.8934 652.962 79.1067C653.282 79.3067 653.676 79.4067 654.142 79.4067C654.676 79.4067 655.129 79.3067 655.502 79.1067C655.889 78.9067 656.196 78.6067 656.422 78.2067L659.122 78.8667C658.642 79.7734 657.989 80.4534 657.162 80.9067C656.349 81.3601 655.356 81.5867 654.182 81.5867ZM663.947 72.1867V81.3867H660.967V72.1867H663.947ZM666.607 75.3067C666.447 75.1467 666.274 75.0201 666.087 74.9267C665.914 74.8334 665.694 74.7867 665.427 74.7867C665.134 74.7867 664.874 74.8667 664.647 75.0267C664.42 75.1867 664.247 75.4201 664.127 75.7267C664.007 76.0334 663.947 76.4067 663.947 76.8467L663.227 75.7867C663.227 75.0534 663.367 74.4001 663.647 73.8267C663.94 73.2534 664.32 72.8001 664.787 72.4667C665.254 72.1334 665.74 71.9667 666.247 71.9667C666.58 71.9667 666.9 72.0334 667.207 72.1667C667.514 72.3001 667.747 72.4867 667.907 72.7267L666.607 75.3067ZM668.555 72.1867H671.775L673.895 77.2867L675.995 72.1867H679.215L673.895 82.4667L668.555 72.1867ZM680.162 68.7267C680.162 68.2467 680.335 67.8601 680.682 67.5667C681.029 67.2601 681.442 67.1067 681.922 67.1067C682.415 67.1067 682.829 67.2601 683.162 67.5667C683.509 67.8601 683.682 68.2467 683.682 68.7267C683.682 69.2067 683.509 69.6001 683.162 69.9067C682.829 70.2134 682.415 70.3667 681.922 70.3667C681.442 70.3667 681.029 70.2134 680.682 69.9067C680.335 69.6001 680.162 69.2067 680.162 68.7267ZM680.462 72.1867H683.382V81.3867H680.462V72.1867ZM690.549 81.5867C689.483 81.5867 688.556 81.3934 687.769 81.0067C686.996 80.6067 686.396 80.0467 685.969 79.3267C685.543 78.6067 685.329 77.7601 685.329 76.7867C685.329 75.8001 685.536 74.9467 685.949 74.2267C686.363 73.5067 686.956 72.9534 687.729 72.5667C688.516 72.1801 689.443 71.9867 690.509 71.9867C691.576 71.9867 692.476 72.1734 693.209 72.5467C693.943 72.9067 694.503 73.4334 694.889 74.1267C695.276 74.8201 695.469 75.6601 695.469 76.6467C695.469 76.7934 695.469 76.9401 695.469 77.0867C695.469 77.2201 695.456 77.3334 695.429 77.4267H687.029V75.7467H692.709L691.989 76.6667C692.056 76.5734 692.109 76.4601 692.149 76.3267C692.203 76.1801 692.229 76.0601 692.229 75.9667C692.229 75.5667 692.156 75.2201 692.009 74.9267C691.863 74.6334 691.656 74.4067 691.389 74.2467C691.123 74.0867 690.809 74.0067 690.449 74.0067C689.996 74.0067 689.616 74.1067 689.309 74.3067C689.003 74.5067 688.769 74.8134 688.609 75.2267C688.463 75.6267 688.383 76.1334 688.369 76.7467C688.369 77.3067 688.449 77.7867 688.609 78.1867C688.769 78.5867 689.009 78.8934 689.329 79.1067C689.649 79.3067 690.043 79.4067 690.509 79.4067C691.043 79.4067 691.496 79.3067 691.869 79.1067C692.256 78.9067 692.563 78.6067 692.789 78.2067L695.489 78.8667C695.009 79.7734 694.356 80.4534 693.529 80.9067C692.716 81.3601 691.723 81.5867 690.549 81.5867ZM695.721 72.1867H698.881L700.801 76.9067L703.441 71.4867L706.141 76.9067L708.061 72.1867H711.221L706.481 81.9667L703.441 76.4867L700.461 81.9667L695.721 72.1867Z" fill="#9E9C9C"/>
<path d="M683.394 224.519C684.699 220.345 688.565 217.504 692.938 217.504H787.077C791.505 217.504 795.406 220.416 796.664 224.662L811.194 273.682C813.093 280.092 808.291 286.524 801.606 286.524H677.605C670.858 286.524 666.047 279.979 668.061 273.539L683.394 224.519Z" fill="url(#paint14_linear_2013_19776)"/>
<path d="M678.5 217.504C683.1 220.355 766.053 218.437 793.071 217.733C797.959 217.605 802.191 221.021 803.133 225.819L812.659 274.336C813.872 280.514 809.142 286.263 802.846 286.263H675.706C669.717 286.263 665.08 281.037 665.865 275.1C668.523 254.982 674.371 214.945 678.5 217.504Z" fill="white" fill-opacity="0.07"/>
<path d="M683.388 224.508C684.697 220.34 688.56 217.504 692.929 217.504H787.085C791.509 217.504 795.408 220.411 796.669 224.652L811.176 273.411C813.084 279.822 808.281 286.263 801.592 286.263H677.621C670.869 286.263 666.058 279.709 668.08 273.267L683.388 224.508Z" fill="white" fill-opacity="0.07"/>
<g filter="url(#filter15_b_2013_19776)">
<ellipse cx="740.5" cy="204.387" rx="37.5" ry="36" fill="url(#paint15_radial_2013_19776)" fill-opacity="0.2"/>
<ellipse cx="740.5" cy="204.387" rx="37.5" ry="36" fill="#FFBABA" fill-opacity="0.6"/>
</g>
<g filter="url(#filter16_b_2013_19776)">
<path d="M673 283.387C673 266.818 686.431 253.387 703 253.387H777C793.569 253.387 807 266.818 807 283.387V308.387C807 313.91 802.523 318.387 797 318.387H683C677.477 318.387 673 313.91 673 308.387V283.387Z" fill="url(#paint16_radial_2013_19776)" fill-opacity="0.2"/>
<path d="M673 283.387C673 266.818 686.431 253.387 703 253.387H777C793.569 253.387 807 266.818 807 283.387V308.387C807 313.91 802.523 318.387 797 318.387H683C677.477 318.387 673 313.91 673 308.387V283.387Z" fill="#FFBABA" fill-opacity="0.6"/>
</g>
</g>
<path d="M892.81 212.263L888.91 212.951L884.112 185.74L888.012 185.053L892.81 212.263ZM867.07 194.99L866.533 191.947L872.767 190.848L872.251 187.923L876.151 187.235L876.667 190.16L882.871 189.066L883.408 192.109L867.07 194.99ZM879.542 206.469C881.767 205.955 883.932 205.451 886.002 204.751L886.792 207.506C881.047 209.646 874.73 210.79 869.943 211.634L868.913 208.556C870.952 208.197 873.202 207.83 875.668 207.304L875.262 205C872.209 204.959 870.024 203.456 869.582 200.944C869.04 197.872 871.452 195.314 875.441 194.611C879.37 193.918 882.542 195.491 883.083 198.564C883.526 201.075 882.017 203.23 879.162 204.312L879.542 206.469ZM873.304 200.288C873.549 201.677 874.925 202.226 876.728 201.908C878.618 201.575 879.635 200.604 879.39 199.215C879.14 197.797 877.853 197.232 875.962 197.565C874.16 197.883 873.054 198.87 873.304 200.288ZM917.962 196.496L914.032 197.189L911.172 180.969L915.102 180.276L917.962 196.496ZM909.903 196.576C906.659 196.143 904.257 194.617 902.608 192.349C901.802 195.202 900.02 197.71 897.012 199.306L894.549 196.572C898.849 194.352 900.164 190.404 899.559 186.977L899.101 184.377L903.06 183.679L903.518 186.279C904.122 189.706 906.616 192.617 911.252 193.17L909.903 196.576ZM918.17 197.678L919.905 207.516L915.976 208.209L914.793 201.502L900.169 204.081L899.616 200.949L918.17 197.678Z" fill="black"/>
<path d="M861.42 165.207L861.877 166.649L861.956 166.635C862.712 165.507 863.597 164.539 865.035 164.285C866.61 164.007 867.654 164.514 868.408 165.68C869.218 164.4 870.136 163.386 871.574 163.132C873.937 162.715 875.293 164.182 875.782 166.959L876.994 173.833L874.099 174.344L872.949 167.824C872.644 166.091 872.051 165.607 871.007 165.791C870.377 165.902 869.74 166.441 869.098 167.407L870.436 174.99L867.54 175.5L866.391 168.981C866.085 167.248 865.492 166.763 864.448 166.947C863.818 167.059 863.182 167.597 862.54 168.563L863.877 176.146L861.001 176.653L859.056 165.624L861.42 165.207ZM884.82 172.738C881.748 173.28 878.966 171.556 878.327 167.932C877.699 164.367 879.824 161.677 882.443 161.215C885.477 160.681 887.445 162.628 887.983 165.681C888.077 166.213 888.111 166.755 888.078 167.025L881.283 168.223C881.839 169.994 883.167 170.734 884.822 170.443C885.748 170.279 886.467 169.868 887.168 169.237L888.465 170.836C887.498 171.799 886.238 172.488 884.82 172.738ZM885.397 165.528C885.133 164.031 884.297 163.204 882.879 163.454C881.717 163.659 880.842 164.686 880.906 166.32L885.397 165.528ZM894.63 171.008C893.133 171.272 891.427 170.923 890.16 170.192L891.161 168.147C892.301 168.738 893.303 169.008 894.327 168.828C895.43 168.633 895.839 168.074 895.717 167.384C895.571 166.557 894.367 166.404 893.121 166.136C891.632 165.87 889.865 165.289 889.542 163.457C889.191 161.468 890.579 159.781 893.041 159.347C894.695 159.055 895.995 159.516 897.043 160.042L896.052 162.025C895.167 161.612 894.349 161.35 893.502 161.499C892.497 161.677 892.121 162.19 892.232 162.82C892.371 163.608 893.513 163.752 894.748 163.96C896.306 164.275 898.043 164.679 898.408 166.747C898.748 168.678 897.506 170.501 894.63 171.008ZM904.382 169.288C902.885 169.552 901.179 169.203 899.912 168.472L900.912 166.427C902.052 167.019 903.055 167.289 904.079 167.108C905.182 166.914 905.591 166.354 905.469 165.665C905.323 164.837 904.118 164.684 902.873 164.416C901.384 164.151 899.616 163.569 899.293 161.737C898.943 159.748 900.331 158.061 902.793 157.627C904.447 157.336 905.747 157.797 906.795 158.323L905.804 160.305C904.919 159.893 904.101 159.631 903.254 159.78C902.249 159.957 901.873 160.47 901.984 161.101C902.123 161.888 903.265 162.032 904.5 162.241C906.058 162.555 907.795 162.96 908.16 165.028C908.5 166.958 907.258 168.781 904.382 169.288Z" fill="#9E9C9C"/>
<path d="M919.683 330.92C917.126 290.779 944.352 254.819 983.681 246.39L985.172 246.071C1024.08 237.732 1063.3 258.842 1077.77 295.913C1095.54 341.458 1068.58 392.443 1021.16 404.312C971.972 416.621 922.906 381.518 919.683 330.92Z" fill="url(#paint17_linear_2013_19776)" fill-opacity="0.9"/>
<path d="M1062.21 314.195C1069.43 347.848 1048.23 380.845 1014.99 387.97C981.74 395.095 948.884 373.68 941.672 340.028C934.46 306.375 955.656 273.378 988.901 266.253C1022.15 259.129 1055 280.543 1062.21 314.195Z" stroke="url(#paint18_radial_2013_19776)" stroke-width="10"/>
<g filter="url(#filter17_b_2013_19776)">
<path d="M952.393 314.469L972.001 310.601L993.646 420.341C994.714 425.756 991.19 431.011 985.775 432.079C980.36 433.147 975.105 429.624 974.037 424.209L952.393 314.469Z" fill="#FFBACB" fill-opacity="0.7"/>
<path d="M952.393 314.469L972.001 310.601L993.646 420.341C994.714 425.756 991.19 431.011 985.775 432.079C980.36 433.147 975.105 429.624 974.037 424.209L952.393 314.469Z" fill="url(#paint19_radial_2013_19776)" fill-opacity="0.05"/>
<path d="M921.88 286.135C913.454 266.143 925.296 243.419 946.509 238.873C967.934 234.282 988.176 250.512 988.35 272.423L988.474 287.943C988.562 299.007 980.906 308.629 970.104 311.029L962.387 312.537L954.206 314.112C943.343 316.543 932.298 310.851 927.974 300.593L921.88 286.135Z" fill="#FFBACB" fill-opacity="0.7"/>
<path d="M921.88 286.135C913.454 266.143 925.296 243.419 946.509 238.873C967.934 234.282 988.176 250.512 988.35 272.423L988.474 287.943C988.562 299.007 980.906 308.629 970.104 311.029L962.387 312.537L954.206 314.112C943.343 316.543 932.298 310.851 927.974 300.593L921.88 286.135Z" fill="url(#paint20_radial_2013_19776)" fill-opacity="0.05"/>
</g>
<g filter="url(#filter18_b_2013_19776)">
<path d="M1027.76 299.379L1048.7 294.891L1071.94 403.318C1073.18 409.101 1069.49 414.794 1063.71 416.033C1057.93 417.273 1052.23 413.589 1051 407.806L1027.76 299.379Z" fill="#FFBACB" fill-opacity="0.7"/>
<path d="M1027.76 299.379L1048.7 294.891L1071.94 403.318C1073.18 409.101 1069.49 414.794 1063.71 416.033C1057.93 417.273 1052.23 413.589 1051 407.806L1027.76 299.379Z" fill="url(#paint21_radial_2013_19776)" fill-opacity="0.05"/>
<path d="M999.034 279.114C998.436 276.324 1000.21 273.578 1003 272.98L1060.91 260.571C1063.7 259.973 1066.44 261.75 1067.04 264.539C1070.03 278.487 1061.15 292.218 1047.2 295.207L1029.7 298.956C1015.75 301.945 1002.02 293.062 999.034 279.114Z" fill="#FFBACB" fill-opacity="0.7"/>
<path d="M999.034 279.114C998.436 276.324 1000.21 273.578 1003 272.98L1060.91 260.571C1063.7 259.973 1066.44 261.75 1067.04 264.539C1070.03 278.487 1061.15 292.218 1047.2 295.207L1029.7 298.956C1015.75 301.945 1002.02 293.062 999.034 279.114Z" fill="url(#paint22_radial_2013_19776)" fill-opacity="0.05"/>
<rect width="13.8481" height="40.3033" rx="6.92403" transform="matrix(0.979253 -0.202643 0.208347 0.978055 991.228 232.012)" fill="#FFBACB" fill-opacity="0.7"/>
<rect width="13.8481" height="40.3033" rx="6.92403" transform="matrix(0.979253 -0.202643 0.208347 0.978055 991.228 232.012)" fill="url(#paint23_radial_2013_19776)" fill-opacity="0.05"/>
<rect x="1017.03" y="226.18" width="13.9585" height="40.6947" rx="6.97923" transform="rotate(-12.0956 1017.03 226.18)" fill="#FFBACB" fill-opacity="0.7"/>
<rect x="1017.03" y="226.18" width="13.9585" height="40.6947" rx="6.97923" transform="rotate(-12.0956 1017.03 226.18)" fill="url(#paint24_radial_2013_19776)" fill-opacity="0.05"/>
<rect width="13.8481" height="40.8752" rx="6.92403" transform="matrix(0.974903 -0.222632 0.216946 0.976184 1041.84 220.434)" fill="#FFBACB" fill-opacity="0.7"/>
<rect width="13.8481" height="40.8752" rx="6.92403" transform="matrix(0.974903 -0.222632 0.216946 0.976184 1041.84 220.434)" fill="url(#paint25_radial_2013_19776)" fill-opacity="0.05"/>
</g>
<g filter="url(#filter19_d_2013_19776)">
<g filter="url(#filter20_b_2013_19776)">
<rect x="1172.74" y="4.38672" width="295.677" height="396.953" rx="20" transform="rotate(15 1172.74 4.38672)" fill="#FDB6B6" fill-opacity="0.03"/>
<rect x="1172.74" y="4.38672" width="295.677" height="396.953" rx="20" transform="rotate(15 1172.74 4.38672)" fill="url(#paint26_linear_2013_19776)" fill-opacity="0.2"/>
</g>
<g filter="url(#filter21_b_2013_19776)">
<rect x="1172.74" y="4.38672" width="295.677" height="396.953" rx="20" transform="rotate(15 1172.74 4.38672)" fill="#FDB6B6" fill-opacity="0.03"/>
<rect x="1172.74" y="4.38672" width="295.677" height="396.953" rx="20" transform="rotate(15 1172.74 4.38672)" fill="url(#paint27_linear_2013_19776)" fill-opacity="0.2"/>
</g>
</g>
<path d="M1202.37 96.6497C1203.63 94.3787 1204.18 92.6633 1204.66 90.8956L1190 86.9668L1190.8 83.9531L1209.29 88.9069L1208.7 91.1092C1208.13 93.2246 1207.51 95.4481 1206.04 98.0358L1202.37 96.6497ZM1208.44 103.432L1184.42 96.9954L1185.23 93.9817L1194.12 96.3655L1195.37 91.7L1199.2 92.725L1197.95 97.3904L1209.25 100.419L1208.44 103.432ZM1195.82 101.852C1201.59 103.397 1204.78 106.303 1203.95 109.433C1203.12 112.534 1198.89 113.452 1193.13 111.907C1187.39 110.37 1184.19 107.463 1185.02 104.363C1185.86 101.233 1190.08 100.314 1195.82 101.852ZM1193.9 109.038C1197.52 110.009 1199.77 109.836 1200.15 108.416C1200.55 106.938 1198.68 105.691 1195.05 104.721C1191.43 103.75 1189.22 103.902 1188.82 105.38C1188.44 106.8 1190.27 108.068 1193.9 109.038ZM1229.98 121.783L1226.16 120.758L1233.31 94.0696L1237.14 95.0945L1229.98 121.783ZM1223.42 99.1208C1222.25 103.467 1223.16 108.65 1227.13 111.7L1224.23 114.155C1221.47 111.954 1220.06 108.874 1219.75 105.281C1217.62 108.469 1214.7 110.792 1211.19 111.374L1209.83 107.749C1214.86 106.953 1218.31 102.63 1219.53 98.0804L1219.93 96.6025L1214.37 95.1117L1215.21 91.9531L1230.16 95.9597L1229.32 99.1182L1223.81 97.643L1223.42 99.1208Z" fill="black"/>
<path fill-rule="evenodd" clip-rule="evenodd" d="M1185.01 185.392C1186.34 180.447 1189.43 176.194 1193.63 173.569C1197.82 170.944 1202.75 170.162 1207.36 171.395L1288.32 193.091C1292.92 194.324 1296.8 197.472 1299.12 201.84C1301.44 206.209 1301.99 211.441 1300.67 216.387L1284.02 278.54C1282.69 283.486 1279.59 287.738 1275.4 290.363C1271.21 292.988 1266.27 293.77 1261.67 292.537L1217.34 280.655L1193.9 291.029C1188.1 293.593 1182.28 288.116 1184 281.714L1186.5 272.391L1180.71 270.841C1176.11 269.608 1172.23 266.461 1169.91 262.092C1167.59 257.724 1167.03 252.491 1168.36 247.546L1185.01 185.392Z" fill="url(#paint28_linear_2013_19776)" fill-opacity="0.9"/>
<path fill-rule="evenodd" clip-rule="evenodd" d="M1185.01 185.392C1186.34 180.447 1189.43 176.194 1193.63 173.569C1197.82 170.944 1202.75 170.162 1207.36 171.395L1288.32 193.091C1292.92 194.324 1296.8 197.472 1299.12 201.84C1301.44 206.209 1301.99 211.441 1300.67 216.387L1284.02 278.54C1282.69 283.486 1279.59 287.738 1275.4 290.363C1271.21 292.988 1266.27 293.77 1261.67 292.537L1217.34 280.655L1193.9 291.029C1188.1 293.593 1182.28 288.116 1184 281.714L1186.5 272.391L1180.71 270.841C1176.11 269.608 1172.23 266.461 1169.91 262.092C1167.59 257.724 1167.03 252.491 1168.36 247.546L1185.01 185.392Z" fill="url(#paint29_linear_2013_19776)" fill-opacity="0.2"/>
<g filter="url(#filter22_b_2013_19776)">
<path fill-rule="evenodd" clip-rule="evenodd" d="M1347.43 270.884C1348.75 265.939 1348.2 260.707 1345.88 256.338C1343.56 251.969 1339.68 248.822 1335.07 247.589L1254.11 225.893C1249.51 224.66 1244.57 225.442 1240.38 228.067C1236.19 230.692 1233.1 234.945 1231.77 239.89L1215.12 302.043C1213.79 306.989 1214.35 312.221 1216.67 316.59C1218.98 320.959 1222.87 324.106 1227.47 325.339L1271.81 337.22L1286.92 357.924C1290.66 363.042 1298.44 361.21 1300.15 354.808L1302.65 345.485L1308.43 347.035C1313.03 348.268 1317.97 347.486 1322.16 344.861C1326.35 342.236 1329.45 337.983 1330.78 333.038L1347.43 270.884Z" fill="#FDB6B6" fill-opacity="0.25"/>
<path fill-rule="evenodd" clip-rule="evenodd" d="M1347.43 270.884C1348.75 265.939 1348.2 260.707 1345.88 256.338C1343.56 251.969 1339.68 248.822 1335.07 247.589L1254.11 225.893C1249.51 224.66 1244.57 225.442 1240.38 228.067C1236.19 230.692 1233.1 234.945 1231.77 239.89L1215.12 302.043C1213.79 306.989 1214.35 312.221 1216.67 316.59C1218.98 320.959 1222.87 324.106 1227.47 325.339L1271.81 337.22L1286.92 357.924C1290.66 363.042 1298.44 361.21 1300.15 354.808L1302.65 345.485L1308.43 347.035C1313.03 348.268 1317.97 347.486 1322.16 344.861C1326.35 342.236 1329.45 337.983 1330.78 333.038L1347.43 270.884Z" fill="#FDB6B6" fill-opacity="0.25"/>
<path fill-rule="evenodd" clip-rule="evenodd" d="M1347.43 270.884C1348.75 265.939 1348.2 260.707 1345.88 256.338C1343.56 251.969 1339.68 248.822 1335.07 247.589L1254.11 225.893C1249.51 224.66 1244.57 225.442 1240.38 228.067C1236.19 230.692 1233.1 234.945 1231.77 239.89L1215.12 302.043C1213.79 306.989 1214.35 312.221 1216.67 316.59C1218.98 320.959 1222.87 324.106 1227.47 325.339L1271.81 337.22L1286.92 357.924C1290.66 363.042 1298.44 361.21 1300.15 354.808L1302.65 345.485L1308.43 347.035C1313.03 348.268 1317.97 347.486 1322.16 344.861C1326.35 342.236 1329.45 337.983 1330.78 333.038L1347.43 270.884Z" fill="#FDB6B6" fill-opacity="0.25"/>
<path fill-rule="evenodd" clip-rule="evenodd" d="M1347.43 270.884C1348.75 265.939 1348.2 260.707 1345.88 256.338C1343.56 251.969 1339.68 248.822 1335.07 247.589L1254.11 225.893C1249.51 224.66 1244.57 225.442 1240.38 228.067C1236.19 230.692 1233.1 234.945 1231.77 239.89L1215.12 302.043C1213.79 306.989 1214.35 312.221 1216.67 316.59C1218.98 320.959 1222.87 324.106 1227.47 325.339L1271.81 337.22L1286.92 357.924C1290.66 363.042 1298.44 361.21 1300.15 354.808L1302.65 345.485L1308.43 347.035C1313.03 348.268 1317.97 347.486 1322.16 344.861C1326.35 342.236 1329.45 337.983 1330.78 333.038L1347.43 270.884Z" fill="url(#paint30_linear_2013_19776)" fill-opacity="0.2"/>
<rect x="1251.46" y="253.121" width="77.2473" height="13.5149" rx="6.75743" transform="rotate(15 1251.46 253.121)" fill="url(#paint31_linear_2013_19776)"/>
<rect x="1243.47" y="282.957" width="55.6899" height="13.5149" rx="6.75743" transform="rotate(15 1243.47 282.957)" fill="url(#paint32_linear_2013_19776)"/>
</g>
<path d="M1198.47 69.2004L1196.48 72.6017L1193.58 71.8253L1201.99 58.7564L1205.35 59.6571L1206.12 75.1847L1203.12 74.3824L1203.1 70.4427L1198.47 69.2004ZM1203.07 66.3768C1203.03 64.7702 1203.1 63.0297 1203.07 61.3652L1202.99 61.3445C1202.21 62.811 1201.37 64.325 1200.52 65.6935L1199.68 67.1444L1203.08 68.0554L1203.07 66.3768ZM1212.78 65.3738L1212.59 66.8552L1212.66 66.8759C1213.86 66.2022 1215.17 65.7245 1216.63 66.1179C1218.97 66.7443 1219.54 68.6362 1218.81 71.3601L1217.01 78.1023L1214.17 77.3413L1215.88 70.9469C1216.33 69.2662 1216.04 68.5676 1214.96 68.2777C1214.05 68.0344 1213.42 68.3197 1212.37 68.8891L1210.38 76.3268L1207.56 75.571L1210.46 64.7527L1212.78 65.3738ZM1225.15 68.6899L1224.96 70.1713L1225.04 70.192C1226.23 69.5183 1227.54 69.0406 1229.01 69.4341C1231.35 70.0604 1231.92 71.9523 1231.19 74.6762L1229.38 81.4184L1226.54 80.6575L1228.26 74.263C1228.71 72.5823 1228.42 71.8837 1227.33 71.5938C1226.43 71.3505 1225.79 71.6358 1224.75 72.2053L1222.76 79.6429L1219.93 78.8871L1222.83 68.0688L1225.15 68.6899ZM1236.76 83.685C1234.05 82.9603 1232.13 80.1868 1233.08 76.6322C1234.05 73.0197 1237.1 71.601 1239.8 72.3257C1242.51 73.0504 1244.44 75.8046 1243.47 79.4171C1242.52 82.9717 1239.46 84.4097 1236.76 83.685ZM1237.38 81.3668C1238.85 81.7602 1240.03 80.6691 1240.57 78.6407C1241.13 76.5543 1240.65 75.0373 1239.18 74.6439C1237.71 74.2505 1236.54 75.3223 1235.98 77.4087C1235.43 79.4371 1235.91 80.9734 1237.38 81.3668ZM1247.54 86.5733C1245.22 85.9521 1244.65 84.0602 1245.37 81.3556L1247.19 74.5941L1250.03 75.3551L1248.31 81.7495C1247.86 83.4495 1248.13 84.1236 1249.21 84.4135C1250.12 84.6568 1250.76 84.4347 1251.78 83.6513L1253.74 76.3489L1256.58 77.1098L1253.68 87.9282L1251.36 87.3071L1251.56 85.7046L1251.48 85.6839C1250.26 86.5366 1249.03 86.9719 1247.54 86.5733ZM1261.92 78.5423L1261.73 80.0236L1261.81 80.0443C1263 79.3706 1264.31 78.893 1265.78 79.2864C1268.12 79.9127 1268.69 81.8046 1267.96 84.5285L1266.15 91.2707L1263.31 90.5098L1265.02 84.1153C1265.47 82.4346 1265.19 81.736 1264.1 81.4461C1263.2 81.2029 1262.56 81.4881 1261.52 82.0576L1259.52 89.4952L1256.7 88.7395L1259.6 77.9211L1261.92 78.5423ZM1273.61 93.558C1270.61 92.7557 1268.9 90.0391 1269.85 86.4845C1270.82 82.872 1273.96 81.4792 1276.9 82.266C1278.23 82.6232 1279.12 83.4191 1279.73 84.3075L1277.88 85.7804C1277.47 85.1718 1277.03 84.7861 1276.41 84.6205C1274.77 84.1805 1273.31 85.1746 1272.75 87.261C1272.31 88.9031 1272.66 90.8205 1274.54 91.3226C1275.31 91.5297 1276.14 91.3786 1276.87 91.0175L1277.49 93.1916C1276.23 93.8253 1274.84 93.8893 1273.61 93.558ZM1283.3 96.1569C1280.29 95.3494 1278.5 92.6122 1279.45 89.0576C1280.39 85.5609 1283.45 84.0212 1286.02 84.7096C1289 85.5068 1289.96 88.1039 1289.15 91.0983C1289.01 91.6199 1288.82 92.1259 1288.67 92.3564L1282.01 90.5705C1281.76 92.4099 1282.65 93.6426 1284.28 94.0775C1285.18 94.3207 1286.01 94.2522 1286.91 93.9763L1287.41 95.9737C1286.13 96.4373 1284.7 96.5296 1283.3 96.1569ZM1286.87 89.8665C1287.27 88.3983 1286.86 87.295 1285.47 86.9223C1284.33 86.6169 1283.1 87.1784 1282.47 88.6863L1286.87 89.8665ZM1295.12 87.4392L1294.93 88.9398L1295.01 88.9605C1296.17 88.2572 1297.38 87.7536 1298.79 88.1315C1300.34 88.5456 1301.07 89.4457 1301.26 90.8219C1302.53 90.004 1303.79 89.4722 1305.2 89.8501C1307.52 90.4712 1308.13 92.3735 1307.4 95.0974L1305.59 101.84L1302.75 101.079L1304.47 94.6842C1304.92 92.9842 1304.59 92.2945 1303.57 92.0202C1302.95 91.8546 1302.14 92.0739 1301.15 92.6782L1299.16 100.116L1296.32 99.3549L1298.04 92.9605C1298.49 91.2605 1298.16 90.5708 1297.13 90.2965C1296.52 90.1308 1295.71 90.3502 1294.72 90.9545L1292.73 98.3921L1289.91 97.6364L1292.81 86.818L1295.12 87.4392ZM1313.15 104.154C1310.14 103.347 1308.34 100.609 1309.3 97.0547C1310.23 93.558 1313.3 92.0183 1315.87 92.7067C1318.84 93.5039 1319.8 96.101 1319 99.0954C1318.86 99.617 1318.66 100.123 1318.52 100.353L1311.85 98.5676C1311.61 100.407 1312.5 101.64 1314.12 102.075C1315.03 102.318 1315.86 102.249 1316.76 101.973L1317.26 103.971C1315.97 104.434 1314.54 104.527 1313.15 104.154ZM1316.72 97.8636C1317.11 96.3954 1316.71 95.2921 1315.31 94.9194C1314.17 94.614 1312.95 95.1755 1312.32 96.6834L1316.72 97.8636ZM1324.97 95.4363L1324.78 96.9176L1324.86 96.9383C1326.05 96.2647 1327.36 95.787 1328.83 96.1804C1331.17 96.8067 1331.74 98.6986 1331.01 101.423L1329.2 108.165L1326.36 107.404L1328.07 101.009C1328.52 99.3286 1328.24 98.63 1327.15 98.3402C1326.25 98.0969 1325.61 98.3821 1324.57 98.9516L1322.57 106.389L1319.75 105.633L1322.65 94.8151L1324.97 95.4363ZM1336.02 110.281C1333.45 109.593 1332.9 107.706 1333.55 105.272L1334.83 100.481L1333.31 100.072L1333.87 97.9662L1335.57 98.2762L1336.67 95.4664L1339.05 96.1031L1338.27 99.0008L1340.94 99.7152L1340.34 101.956L1337.67 101.242L1336.39 106.033C1336.06 107.25 1336.39 107.978 1337.37 108.242C1337.74 108.34 1338.17 108.353 1338.5 108.295L1338.41 110.486C1337.75 110.538 1336.96 110.535 1336.02 110.281Z" fill="#9E9C9C"/>
<g filter="url(#filter23_d_2013_19776)">
<g opacity="0.1" filter="url(#filter24_d_2013_19776)">
<g filter="url(#filter25_b_2013_19776)">
<rect x="814" y="129.672" width="295.677" height="396.953" rx="20" transform="rotate(-12.1605 814 129.672)" fill="#FDB6B6" fill-opacity="0.04"/>
<rect x="814" y="129.672" width="295.677" height="396.953" rx="20" transform="rotate(-12.1605 814 129.672)" fill="url(#paint33_linear_2013_19776)" fill-opacity="0.2"/>
</g>
<g filter="url(#filter26_b_2013_19776)">
<rect x="814" y="129.672" width="295.677" height="396.953" rx="20" transform="rotate(-12.1605 814 129.672)" fill="#FDB6B6" fill-opacity="0.04"/>
<rect x="814" y="129.672" width="295.677" height="396.953" rx="20" transform="rotate(-12.1605 814 129.672)" fill="url(#paint34_linear_2013_19776)" fill-opacity="0.5"/>
</g>
</g>
</g>
<defs>
<filter id="filter0_d_2013_19776" x="0.165771" y="14.5508" width="383.783" height="465.938" filterUnits="userSpaceOnUse" color-interpolation-filters="sRGB">
<feFlood flood-opacity="0" result="BackgroundImageFix"/>
<feColorMatrix in="SourceAlpha" type="matrix" values="0 0 0 0 0 0 0 0 0 0 0 0 0 0 0 0 0 0 127 0" result="hardAlpha"/>
<feOffset dy="10"/>
<feGaussianBlur stdDeviation="7.5"/>
<feComposite in2="hardAlpha" operator="out"/>
<feColorMatrix type="matrix" values="0 0 0 0 0.167204 0 0 0 0 0.161674 0 0 0 0 0.161674 0 0 0 0.1 0"/>
<feBlend mode="normal" in2="BackgroundImageFix" result="effect1_dropShadow_2013_19776"/>
<feBlend mode="normal" in="SourceGraphic" in2="effect1_dropShadow_2013_19776" result="shape"/>
</filter>
<filter id="filter1_b_2013_19776" x="-484.834" y="-480.449" width="1353.78" height="1435.94" filterUnits="userSpaceOnUse" color-interpolation-filters="sRGB">
<feFlood flood-opacity="0" result="BackgroundImageFix"/>
<feGaussianBlur in="BackgroundImageFix" stdDeviation="250"/>
<feComposite in2="SourceAlpha" operator="in" result="effect1_backgroundBlur_2013_19776"/>
<feBlend mode="normal" in="SourceGraphic" in2="effect1_backgroundBlur_2013_19776" result="shape"/>
</filter>
<filter id="filter2_b_2013_19776" x="-484.834" y="-480.449" width="1353.78" height="1435.94" filterUnits="userSpaceOnUse" color-interpolation-filters="sRGB">
<feFlood flood-opacity="0" result="BackgroundImageFix"/>
<feGaussianBlur in="BackgroundImageFix" stdDeviation="250"/>
<feComposite in2="SourceAlpha" operator="in" result="effect1_backgroundBlur_2013_19776"/>
<feBlend mode="normal" in="SourceGraphic" in2="effect1_backgroundBlur_2013_19776" result="shape"/>
</filter>
<filter id="filter3_bd_2013_19776" x="266.828" y="54.7773" width="388.023" height="468.535" filterUnits="userSpaceOnUse" color-interpolation-filters="sRGB">
<feFlood flood-opacity="0" result="BackgroundImageFix"/>
<feGaussianBlur in="BackgroundImageFix" stdDeviation="2"/>
<feComposite in2="SourceAlpha" operator="in" result="effect1_backgroundBlur_2013_19776"/>
<feColorMatrix in="SourceAlpha" type="matrix" values="0 0 0 0 0 0 0 0 0 0 0 0 0 0 0 0 0 0 127 0" result="hardAlpha"/>
<feOffset dy="4"/>
<feGaussianBlur stdDeviation="7.5"/>
<feComposite in2="hardAlpha" operator="out"/>
<feColorMatrix type="matrix" values="0 0 0 0 0.168627 0 0 0 0 0.160784 0 0 0 0 0.160784 0 0 0 0.1 0"/>
<feBlend mode="normal" in2="effect1_backgroundBlur_2013_19776" result="effect2_dropShadow_2013_19776"/>
<feBlend mode="normal" in="SourceGraphic" in2="effect2_dropShadow_2013_19776" result="shape"/>
</filter>
<filter id="filter4_d_2013_19776" x="266.828" y="60.7773" width="388.023" height="468.535" filterUnits="userSpaceOnUse" color-interpolation-filters="sRGB">
<feFlood flood-opacity="0" result="BackgroundImageFix"/>
<feColorMatrix in="SourceAlpha" type="matrix" values="0 0 0 0 0 0 0 0 0 0 0 0 0 0 0 0 0 0 127 0" result="hardAlpha"/>
<feOffset dy="10"/>
<feGaussianBlur stdDeviation="7.5"/>
<feComposite in2="hardAlpha" operator="out"/>
<feColorMatrix type="matrix" values="0 0 0 0 0.168627 0 0 0 0 0.160784 0 0 0 0 0.160784 0 0 0 0.09 0"/>
<feBlend mode="normal" in2="BackgroundImageFix" result="effect1_dropShadow_2013_19776"/>
<feBlend mode="normal" in="SourceGraphic" in2="effect1_dropShadow_2013_19776" result="shape"/>
</filter>
<filter id="filter5_d_2013_19776" x="266.828" y="60.7773" width="388.023" height="468.535" filterUnits="userSpaceOnUse" color-interpolation-filters="sRGB">
<feFlood flood-opacity="0" result="BackgroundImageFix"/>
<feColorMatrix in="SourceAlpha" type="matrix" values="0 0 0 0 0 0 0 0 0 0 0 0 0 0 0 0 0 0 127 0" result="hardAlpha"/>
<feOffset dy="10"/>
<feGaussianBlur stdDeviation="7.5"/>
<feComposite in2="hardAlpha" operator="out"/>
<feColorMatrix type="matrix" values="0 0 0 0 0.168627 0 0 0 0 0.160784 0 0 0 0 0.160784 0 0 0 0.09 0"/>
<feBlend mode="normal" in2="BackgroundImageFix" result="effect1_dropShadow_2013_19776"/>
<feBlend mode="normal" in="SourceGraphic" in2="effect1_dropShadow_2013_19776" result="shape"/>
</filter>
<filter id="filter6_b_2013_19776" x="-218.172" y="-434.223" width="1358.02" height="1438.54" filterUnits="userSpaceOnUse" color-interpolation-filters="sRGB">
<feFlood flood-opacity="0" result="BackgroundImageFix"/>
<feGaussianBlur in="BackgroundImageFix" stdDeviation="250"/>
<feComposite in2="SourceAlpha" operator="in" result="effect1_backgroundBlur_2013_19776"/>
<feBlend mode="normal" in="SourceGraphic" in2="effect1_backgroundBlur_2013_19776" result="shape"/>
</filter>
<filter id="filter7_b_2013_19776" x="-218.172" y="-434.223" width="1358.02" height="1438.54" filterUnits="userSpaceOnUse" color-interpolation-filters="sRGB">
<feFlood flood-opacity="0" result="BackgroundImageFix"/>
<feGaussianBlur in="BackgroundImageFix" stdDeviation="250"/>
<feComposite in2="SourceAlpha" operator="in" result="effect1_backgroundBlur_2013_19776"/>
<feBlend mode="normal" in="SourceGraphic" in2="effect1_backgroundBlur_2013_19776" result="shape"/>
</filter>
<filter id="filter8_b_2013_19776" x="362.408" y="224.371" width="172.989" height="141.355" filterUnits="userSpaceOnUse" color-interpolation-filters="sRGB">
<feFlood flood-opacity="0" result="BackgroundImageFix"/>
<feGaussianBlur in="BackgroundImageFix" stdDeviation="2"/>
<feComposite in2="SourceAlpha" operator="in" result="effect1_backgroundBlur_2013_19776"/>
<feBlend mode="normal" in="SourceGraphic" in2="effect1_backgroundBlur_2013_19776" result="shape"/>
</filter>
<filter id="filter9_b_2013_19776" x="479.964" y="348.02" width="72.8126" height="70.6953" filterUnits="userSpaceOnUse" color-interpolation-filters="sRGB">
<feFlood flood-opacity="0" result="BackgroundImageFix"/>
<feGaussianBlur in="BackgroundImageFix" stdDeviation="2"/>
<feComposite in2="SourceAlpha" operator="in" result="effect1_backgroundBlur_2013_19776"/>
<feBlend mode="normal" in="SourceGraphic" in2="effect1_backgroundBlur_2013_19776" result="shape"/>
</filter>
<filter id="filter10_b_2013_19776" x="474.667" y="390.25" width="39.8186" height="36.3867" filterUnits="userSpaceOnUse" color-interpolation-filters="sRGB">
<feFlood flood-opacity="0" result="BackgroundImageFix"/>
<feGaussianBlur in="BackgroundImageFix" stdDeviation="2"/>
<feComposite in2="SourceAlpha" operator="in" result="effect1_backgroundBlur_2013_19776"/>
<feBlend mode="normal" in="SourceGraphic" in2="effect1_backgroundBlur_2013_19776" result="shape"/>
</filter>
<filter id="filter11_bd_2013_19776" x="577" y="20.3867" width="325.677" height="426.953" filterUnits="userSpaceOnUse" color-interpolation-filters="sRGB">
<feFlood flood-opacity="0" result="BackgroundImageFix"/>
<feGaussianBlur in="BackgroundImageFix" stdDeviation="2"/>
<feComposite in2="SourceAlpha" operator="in" result="effect1_backgroundBlur_2013_19776"/>
<feColorMatrix in="SourceAlpha" type="matrix" values="0 0 0 0 0 0 0 0 0 0 0 0 0 0 0 0 0 0 127 0" result="hardAlpha"/>
<feOffset dy="10"/>
<feGaussianBlur stdDeviation="7.5"/>
<feComposite in2="hardAlpha" operator="out"/>
<feColorMatrix type="matrix" values="0 0 0 0 0.168627 0 0 0 0 0.160784 0 0 0 0 0.160784 0 0 0 0.15 0"/>
<feBlend mode="normal" in2="effect1_backgroundBlur_2013_19776" result="effect2_dropShadow_2013_19776"/>
<feBlend mode="normal" in="SourceGraphic" in2="effect2_dropShadow_2013_19776" result="shape"/>
</filter>
<filter id="filter12_d_2013_19776" x="577" y="20.3867" width="325.677" height="426.953" filterUnits="userSpaceOnUse" color-interpolation-filters="sRGB">
<feFlood flood-opacity="0" result="BackgroundImageFix"/>
<feColorMatrix in="SourceAlpha" type="matrix" values="0 0 0 0 0 0 0 0 0 0 0 0 0 0 0 0 0 0 127 0" result="hardAlpha"/>
<feOffset dy="10"/>
<feGaussianBlur stdDeviation="7.5"/>
<feComposite in2="hardAlpha" operator="out"/>
<feColorMatrix type="matrix" values="0 0 0 0 0.168627 0 0 0 0 0.160784 0 0 0 0 0.160784 0 0 0 0.09 0"/>
<feBlend mode="normal" in2="BackgroundImageFix" result="effect1_dropShadow_2013_19776"/>
<feBlend mode="normal" in="SourceGraphic" in2="effect1_dropShadow_2013_19776" result="shape"/>
</filter>
<filter id="filter13_b_2013_19776" x="92" y="-474.613" width="1295.68" height="1396.95" filterUnits="userSpaceOnUse" color-interpolation-filters="sRGB">
<feFlood flood-opacity="0" result="BackgroundImageFix"/>
<feGaussianBlur in="BackgroundImageFix" stdDeviation="250"/>
<feComposite in2="SourceAlpha" operator="in" result="effect1_backgroundBlur_2013_19776"/>
<feBlend mode="normal" in="SourceGraphic" in2="effect1_backgroundBlur_2013_19776" result="shape"/>
</filter>
<filter id="filter14_b_2013_19776" x="92" y="-474.613" width="1295.68" height="1396.95" filterUnits="userSpaceOnUse" color-interpolation-filters="sRGB">
<feFlood flood-opacity="0" result="BackgroundImageFix"/>
<feGaussianBlur in="BackgroundImageFix" stdDeviation="250"/>
<feComposite in2="SourceAlpha" operator="in" result="effect1_backgroundBlur_2013_19776"/>
<feBlend mode="normal" in="SourceGraphic" in2="effect1_backgroundBlur_2013_19776" result="shape"/>
</filter>
<filter id="filter15_b_2013_19776" x="699" y="164.387" width="83" height="80" filterUnits="userSpaceOnUse" color-interpolation-filters="sRGB">
<feFlood flood-opacity="0" result="BackgroundImageFix"/>
<feGaussianBlur in="BackgroundImageFix" stdDeviation="2"/>
<feComposite in2="SourceAlpha" operator="in" result="effect1_backgroundBlur_2013_19776"/>
<feBlend mode="normal" in="SourceGraphic" in2="effect1_backgroundBlur_2013_19776" result="shape"/>
</filter>
<filter id="filter16_b_2013_19776" x="669" y="249.387" width="142" height="73" filterUnits="userSpaceOnUse" color-interpolation-filters="sRGB">
<feFlood flood-opacity="0" result="BackgroundImageFix"/>
<feGaussianBlur in="BackgroundImageFix" stdDeviation="2"/>
<feComposite in2="SourceAlpha" operator="in" result="effect1_backgroundBlur_2013_19776"/>
<feBlend mode="normal" in="SourceGraphic" in2="effect1_backgroundBlur_2013_19776" result="shape"/>
</filter>
<filter id="filter17_b_2013_19776" x="915.146" y="234.094" width="82.6907" height="202.176" filterUnits="userSpaceOnUse" color-interpolation-filters="sRGB">
<feFlood flood-opacity="0" result="BackgroundImageFix"/>
<feGaussianBlur in="BackgroundImageFix" stdDeviation="2"/>
<feComposite in2="SourceAlpha" operator="in" result="effect1_backgroundBlur_2013_19776"/>
<feBlend mode="normal" in="SourceGraphic" in2="effect1_backgroundBlur_2013_19776" result="shape"/>
</filter>
<filter id="filter18_b_2013_19776" x="988.518" y="214.719" width="87.6612" height="205.555" filterUnits="userSpaceOnUse" color-interpolation-filters="sRGB">
<feFlood flood-opacity="0" result="BackgroundImageFix"/>
<feGaussianBlur in="BackgroundImageFix" stdDeviation="2"/>
<feComposite in2="SourceAlpha" operator="in" result="effect1_backgroundBlur_2013_19776"/>
<feBlend mode="normal" in="SourceGraphic" in2="effect1_backgroundBlur_2013_19776" result="shape"/>
</filter>
<filter id="filter19_d_2013_19776" x="1059.49" y="3.875" width="409.361" height="480.977" filterUnits="userSpaceOnUse" color-interpolation-filters="sRGB">
<feFlood flood-opacity="0" result="BackgroundImageFix"/>
<feColorMatrix in="SourceAlpha" type="matrix" values="0 0 0 0 0 0 0 0 0 0 0 0 0 0 0 0 0 0 127 0" result="hardAlpha"/>
<feOffset dy="10"/>
<feGaussianBlur stdDeviation="7.5"/>
<feComposite in2="hardAlpha" operator="out"/>
<feColorMatrix type="matrix" values="0 0 0 0 0.168627 0 0 0 0 0.160784 0 0 0 0 0.160784 0 0 0 0.09 0"/>
<feBlend mode="normal" in2="BackgroundImageFix" result="effect1_dropShadow_2013_19776"/>
<feBlend mode="normal" in="SourceGraphic" in2="effect1_dropShadow_2013_19776" result="shape"/>
</filter>
<filter id="filter20_b_2013_19776" x="574.489" y="-491.125" width="1379.36" height="1450.98" filterUnits="userSpaceOnUse" color-interpolation-filters="sRGB">
<feFlood flood-opacity="0" result="BackgroundImageFix"/>
<feGaussianBlur in="BackgroundImageFix" stdDeviation="250"/>
<feComposite in2="SourceAlpha" operator="in" result="effect1_backgroundBlur_2013_19776"/>
<feBlend mode="normal" in="SourceGraphic" in2="effect1_backgroundBlur_2013_19776" result="shape"/>
</filter>
<filter id="filter21_b_2013_19776" x="574.489" y="-491.125" width="1379.36" height="1450.98" filterUnits="userSpaceOnUse" color-interpolation-filters="sRGB">
<feFlood flood-opacity="0" result="BackgroundImageFix"/>
<feGaussianBlur in="BackgroundImageFix" stdDeviation="250"/>
<feComposite in2="SourceAlpha" operator="in" result="effect1_backgroundBlur_2013_19776"/>
<feBlend mode="normal" in="SourceGraphic" in2="effect1_backgroundBlur_2013_19776" result="shape"/>
</filter>
<filter id="filter22_b_2013_19776" x="1210.41" y="221.32" width="141.719" height="143.562" filterUnits="userSpaceOnUse" color-interpolation-filters="sRGB">
<feFlood flood-opacity="0" result="BackgroundImageFix"/>
<feGaussianBlur in="BackgroundImageFix" stdDeviation="2"/>
<feComposite in2="SourceAlpha" operator="in" result="effect1_backgroundBlur_2013_19776"/>
<feBlend mode="normal" in="SourceGraphic" in2="effect1_backgroundBlur_2013_19776" result="shape"/>
</filter>
<filter id="filter23_d_2013_19776" x="802.76" y="66.1484" width="395.141" height="472.809" filterUnits="userSpaceOnUse" color-interpolation-filters="sRGB">
<feFlood flood-opacity="0" result="BackgroundImageFix"/>
<feColorMatrix in="SourceAlpha" type="matrix" values="0 0 0 0 0 0 0 0 0 0 0 0 0 0 0 0 0 0 127 0" result="hardAlpha"/>
<feOffset dy="10"/>
<feGaussianBlur stdDeviation="7.5"/>
<feComposite in2="hardAlpha" operator="out"/>
<feColorMatrix type="matrix" values="0 0 0 0 0.168627 0 0 0 0 0.160784 0 0 0 0 0.160784 0 0 0 0.09 0"/>
<feBlend mode="normal" in2="BackgroundImageFix" result="effect1_dropShadow_2013_19776"/>
<feBlend mode="normal" in="SourceGraphic" in2="effect1_dropShadow_2013_19776" result="shape"/>
</filter>
<filter id="filter24_d_2013_19776" x="802.76" y="66.1484" width="395.141" height="472.809" filterUnits="userSpaceOnUse" color-interpolation-filters="sRGB">
<feFlood flood-opacity="0" result="BackgroundImageFix"/>
<feColorMatrix in="SourceAlpha" type="matrix" values="0 0 0 0 0 0 0 0 0 0 0 0 0 0 0 0 0 0 127 0" result="hardAlpha"/>
<feOffset dy="10"/>
<feGaussianBlur stdDeviation="7.5"/>
<feComposite in2="hardAlpha" operator="out"/>
<feColorMatrix type="matrix" values="0 0 0 0 0.168627 0 0 0 0 0.160784 0 0 0 0 0.160784 0 0 0 0.09 0"/>
<feBlend mode="normal" in2="BackgroundImageFix" result="effect1_dropShadow_2013_19776"/>
<feBlend mode="normal" in="SourceGraphic" in2="effect1_dropShadow_2013_19776" result="shape"/>
</filter>
<filter id="filter25_b_2013_19776" x="317.76" y="-428.852" width="1365.14" height="1442.81" filterUnits="userSpaceOnUse" color-interpolation-filters="sRGB">
<feFlood flood-opacity="0" result="BackgroundImageFix"/>
<feGaussianBlur in="BackgroundImageFix" stdDeviation="250"/>
<feComposite in2="SourceAlpha" operator="in" result="effect1_backgroundBlur_2013_19776"/>
<feBlend mode="normal" in="SourceGraphic" in2="effect1_backgroundBlur_2013_19776" result="shape"/>
</filter>
<filter id="filter26_b_2013_19776" x="317.76" y="-428.852" width="1365.14" height="1442.81" filterUnits="userSpaceOnUse" color-interpolation-filters="sRGB">
<feFlood flood-opacity="0" result="BackgroundImageFix"/>
<feGaussianBlur in="BackgroundImageFix" stdDeviation="250"/>
<feComposite in2="SourceAlpha" operator="in" result="effect1_backgroundBlur_2013_19776"/>
<feBlend mode="normal" in="SourceGraphic" in2="effect1_backgroundBlur_2013_19776" result="shape"/>
</filter>
<linearGradient id="paint0_linear_2013_19776" x1="266.643" y1="189.962" x2="452.401" y2="262.318" gradientUnits="userSpaceOnUse">
<stop stop-color="#FE714F" stop-opacity="0"/>
<stop offset="1" stop-color="#FF06E7"/>
</linearGradient>
<linearGradient id="paint1_linear_2013_19776" x1="266.643" y1="189.962" x2="452.401" y2="262.318" gradientUnits="userSpaceOnUse">
<stop stop-color="#FE714F" stop-opacity="0"/>
<stop offset="1" stop-color="#FF06E7"/>
</linearGradient>
<linearGradient id="paint2_linear_2013_19776" x1="147.968" y1="188.359" x2="182.966" y2="327.838" gradientUnits="userSpaceOnUse">
<stop stop-color="#FF1E98"/>
<stop offset="0.467231" stop-color="#FF4650"/>
<stop offset="1" stop-color="#FE7550"/>
</linearGradient>
<linearGradient id="paint3_linear_2013_19776" x1="258.942" y1="290.847" x2="32.9769" y2="87.8971" gradientUnits="userSpaceOnUse">
<stop stop-color="#FF0ADB" stop-opacity="0"/>
<stop offset="1" stop-color="#FF0ADB"/>
</linearGradient>
<linearGradient id="paint4_linear_2013_19776" x1="538.638" y1="96.6361" x2="651.297" y2="374.387" gradientUnits="userSpaceOnUse">
<stop stop-color="#FE714F" stop-opacity="0"/>
<stop offset="1" stop-color="#FF06E7"/>
</linearGradient>
<linearGradient id="paint5_linear_2013_19776" x1="538.638" y1="96.6361" x2="665.297" y2="121.387" gradientUnits="userSpaceOnUse">
<stop stop-color="#FE714F" stop-opacity="0"/>
<stop offset="1" stop-color="#FF06E7"/>
</linearGradient>
<linearGradient id="paint6_linear_2013_19776" x1="449.771" y1="290.126" x2="431.364" y2="394.516" gradientUnits="userSpaceOnUse">
<stop stop-color="#FF1F97"/>
<stop offset="0.505" stop-color="#FF3550"/>
<stop offset="1" stop-color="#FD7A4F"/>
</linearGradient>
<linearGradient id="paint7_linear_2013_19776" x1="458.627" y1="239.899" x2="439.178" y2="350.198" gradientUnits="userSpaceOnUse">
<stop stop-color="#FF07E3" stop-opacity="0"/>
<stop offset="1" stop-color="#FF04EC"/>
</linearGradient>
<linearGradient id="paint8_linear_2013_19776" x1="488.514" y1="281.483" x2="416.083" y2="268.711" gradientUnits="userSpaceOnUse">
<stop stop-color="#FFCECE"/>
<stop offset="1" stop-color="white"/>
</linearGradient>
<linearGradient id="paint9_linear_2013_19776" x1="483.597" y1="309.37" x2="411.166" y2="296.598" gradientUnits="userSpaceOnUse">
<stop stop-color="#FFCECE"/>
<stop offset="1" stop-color="white"/>
</linearGradient>
<linearGradient id="paint10_linear_2013_19776" x1="549.025" y1="347.846" x2="532.289" y2="369.531" gradientUnits="userSpaceOnUse">
<stop stop-color="#FF0CD3"/>
<stop offset="0.505" stop-color="#FF4550"/>
<stop offset="1" stop-color="#FE7450"/>
</linearGradient>
<linearGradient id="paint11_linear_2013_19776" x1="485.366" y1="417.576" x2="477.596" y2="427.644" gradientUnits="userSpaceOnUse">
<stop stop-color="#FE6F50"/>
<stop offset="0.505" stop-color="#CB0000"/>
<stop offset="1" stop-color="#990000"/>
<stop offset="1" stop-color="#FF6FA4"/>
</linearGradient>
<linearGradient id="paint12_linear_2013_19776" x1="777.841" y1="59.6361" x2="890.5" y2="337.387" gradientUnits="userSpaceOnUse">
<stop stop-color="#FE714F" stop-opacity="0"/>
<stop offset="1" stop-color="#FF06E7"/>
</linearGradient>
<linearGradient id="paint13_linear_2013_19776" x1="777.841" y1="59.6361" x2="904.5" y2="84.3867" gradientUnits="userSpaceOnUse">
<stop stop-color="#FE714F" stop-opacity="0"/>
<stop offset="1" stop-color="#FF06E7"/>
</linearGradient>
<linearGradient id="paint14_linear_2013_19776" x1="739.5" y1="217.504" x2="739.5" y2="286.524" gradientUnits="userSpaceOnUse">
<stop stop-color="#FF2093"/>
<stop offset="0.47" stop-color="#FF4550"/>
<stop offset="1" stop-color="#FE6F4F"/>
</linearGradient>
<radialGradient id="paint15_radial_2013_19776" cx="0" cy="0" r="1" gradientUnits="userSpaceOnUse" gradientTransform="translate(740.5 204.387) rotate(90) scale(36 37.5)">
<stop stop-color="#FF07E2" stop-opacity="0"/>
<stop offset="1" stop-color="#FF03EF"/>
</radialGradient>
<radialGradient id="paint16_radial_2013_19776" cx="0" cy="0" r="1" gradientUnits="userSpaceOnUse" gradientTransform="translate(740 285.887) rotate(90) scale(32.5 67)">
<stop stop-color="#FF07E2" stop-opacity="0"/>
<stop offset="1" stop-color="#FF03EF"/>
</radialGradient>
<linearGradient id="paint17_linear_2013_19776" x1="984.553" y1="246.203" x2="1019.26" y2="408.144" gradientUnits="userSpaceOnUse">
<stop stop-color="#FE6350"/>
<stop offset="0.5" stop-color="#FF3A50"/>
<stop offset="1" stop-color="#FF2582"/>
</linearGradient>
<radialGradient id="paint18_radial_2013_19776" cx="0" cy="0" r="1" gradientUnits="userSpaceOnUse" gradientTransform="translate(1001.94 327.112) rotate(77.9044) scale(67.2402 66.6398)">
<stop stop-color="#FFE2E2"/>
<stop offset="0.475" stop-color="#FC8989" stop-opacity="0.61"/>
<stop offset="0.4751" stop-color="white" stop-opacity="0.72"/>
<stop offset="1" stop-color="#FC8989" stop-opacity="0.61"/>
</radialGradient>
<radialGradient id="paint19_radial_2013_19776" cx="0" cy="0" r="1" gradientUnits="userSpaceOnUse" gradientTransform="translate(973.986 372.307) rotate(78.8426) scale(60.9237 9.99314)">
<stop stop-color="#FF0CD4"/>
<stop offset="1" stop-color="#FD864F" stop-opacity="0"/>
</radialGradient>
<radialGradient id="paint20_radial_2013_19776" cx="0" cy="0" r="1" gradientUnits="userSpaceOnUse" gradientTransform="translate(954.742 275.715) rotate(77.9044) scale(37.7491 42.116)">
<stop stop-color="#FF0CD4"/>
<stop offset="1" stop-color="#FD864F" stop-opacity="0"/>
</radialGradient>
<radialGradient id="paint21_radial_2013_19776" cx="0" cy="0" r="1" gradientUnits="userSpaceOnUse" gradientTransform="translate(1050.97 356.584) rotate(77.9044) scale(60.7991 10.7095)">
<stop stop-color="#FF0CD4"/>
<stop offset="1" stop-color="#FD864F" stop-opacity="0"/>
</radialGradient>
<radialGradient id="paint22_radial_2013_19776" cx="0" cy="0" r="1" gradientUnits="userSpaceOnUse" gradientTransform="translate(1035.2 281.929) rotate(77.9044) scale(15.4971 34.7758)">
<stop stop-color="#FF0CD4"/>
<stop offset="1" stop-color="#FD864F" stop-opacity="0"/>
</radialGradient>
<radialGradient id="paint23_radial_2013_19776" cx="0" cy="0" r="1" gradientUnits="userSpaceOnUse" gradientTransform="translate(6.92403 20.1517) rotate(90) scale(20.1517 6.92403)">
<stop stop-color="#FF0CD4"/>
<stop offset="1" stop-color="#FD864F" stop-opacity="0"/>
</radialGradient>
<radialGradient id="paint24_radial_2013_19776" cx="0" cy="0" r="1" gradientUnits="userSpaceOnUse" gradientTransform="translate(1024.01 246.527) rotate(90) scale(20.3473 6.97923)">
<stop stop-color="#FF0CD4"/>
<stop offset="1" stop-color="#FD864F" stop-opacity="0"/>
</radialGradient>
<radialGradient id="paint25_radial_2013_19776" cx="0" cy="0" r="1" gradientUnits="userSpaceOnUse" gradientTransform="translate(6.92403 20.4376) rotate(90) scale(20.4376 6.92403)">
<stop stop-color="#FF0CD4"/>
<stop offset="1" stop-color="#FD864F" stop-opacity="0"/>
</radialGradient>
<linearGradient id="paint26_linear_2013_19776" x1="1262.85" y1="349.319" x2="1174.8" y2="385.851" gradientUnits="userSpaceOnUse">
<stop stop-color="#FE714F" stop-opacity="0"/>
<stop offset="1" stop-color="#FF06E7"/>
</linearGradient>
<linearGradient id="paint27_linear_2013_19776" x1="1262.85" y1="349.319" x2="1174.8" y2="385.851" gradientUnits="userSpaceOnUse">
<stop stop-color="#FE714F" stop-opacity="0"/>
<stop offset="1" stop-color="#FF06E7"/>
</linearGradient>
<linearGradient id="paint28_linear_2013_19776" x1="1247.84" y1="182.243" x2="1216.6" y2="298.793" gradientUnits="userSpaceOnUse">
<stop stop-color="#FE6350"/>
<stop offset="0.5" stop-color="#FF3A50"/>
<stop offset="1" stop-color="#FF2582"/>
</linearGradient>
<linearGradient id="paint29_linear_2013_19776" x1="1271.7" y1="267.851" x2="1293.7" y2="321.342" gradientUnits="userSpaceOnUse">
<stop stop-color="#FE6361"/>
<stop offset="0.29" stop-color="#FF6361"/>
<stop offset="1" stop-color="#FF15B5"/>
</linearGradient>
<linearGradient id="paint30_linear_2013_19776" x1="1247.71" y1="239.853" x2="1294.59" y2="236.74" gradientUnits="userSpaceOnUse">
<stop stop-color="#FF0FC9"/>
<stop offset="1" stop-color="#F517C3" stop-opacity="0"/>
</linearGradient>
<linearGradient id="paint31_linear_2013_19776" x1="1251.46" y1="259.879" x2="1328.71" y2="259.879" gradientUnits="userSpaceOnUse">
<stop stop-color="white" stop-opacity="0.89"/>
<stop offset="0.6" stop-color="#FFE7E7" stop-opacity="0.83437"/>
<stop offset="1" stop-color="#FF8A8A" stop-opacity="0.07"/>
</linearGradient>
<linearGradient id="paint32_linear_2013_19776" x1="1243.47" y1="289.714" x2="1299.16" y2="289.714" gradientUnits="userSpaceOnUse">
<stop stop-color="white" stop-opacity="0.89"/>
<stop offset="0.6" stop-color="#FFE7E7" stop-opacity="0.83437"/>
<stop offset="1" stop-color="#FF8A8A" stop-opacity="0.08"/>
</linearGradient>
<linearGradient id="paint33_linear_2013_19776" x1="999.841" y1="163.921" x2="1112.5" y2="441.672" gradientUnits="userSpaceOnUse">
<stop stop-color="#FE714F" stop-opacity="0"/>
<stop offset="1" stop-color="#FF06E7"/>
</linearGradient>
<linearGradient id="paint34_linear_2013_19776" x1="999.841" y1="163.921" x2="1126.5" y2="188.672" gradientUnits="userSpaceOnUse">
<stop stop-color="#FE714F" stop-opacity="0"/>
<stop offset="1" stop-color="#FF06E7"/>
</linearGradient>
</defs>
</svg>
