<svg width="40" height="40" viewBox="0 0 40 40" fill="none" xmlns="http://www.w3.org/2000/svg">
<path d="M20 0C31.04 0 40 8.96 40 20C40 31.04 31.04 40 20 40C8.96 40 0 31.04 0 20C0 8.96 8.96 0 20 0ZM20 17C20 17.5523 19.5523 18 19 18H13C12.4477 18 12 18.4477 12 19V21C12 21.5523 12.4477 22 13 22H19C19.5523 22 20 22.4477 20 23V25.5858C20 26.4767 21.0771 26.9229 21.7071 26.2929L27.2929 20.7071C27.6834 20.3166 27.6834 19.6834 27.2929 19.2929L21.7071 13.7071C21.0771 13.0771 20 13.5233 20 14.4142V17Z" fill="#2B3647"/>
</svg>
