<svg width="6" height="12" viewBox="0 0 6 12" fill="none" xmlns="http://www.w3.org/2000/svg">
<path id="Vector" fill-rule="evenodd" clip-rule="evenodd" d="M0.144087 6.09736C0.051107 5.99679 0 5.86872 0 5.73628C0 5.60384 0.051107 5.47577 0.144087 5.3752L4.93428 0.195744C4.98544 0.140358 5.04787 0.0948544 5.11801 0.0618305C5.18815 0.0288067 5.26462 0.00891113 5.34306 0.00327682C5.42149 -0.00235748 5.50035 0.00638103 5.57514 0.0289946C5.64994 0.0516081 5.71919 0.0876532 5.77895 0.135072C5.83871 0.182489 5.88781 0.240352 5.92344 0.305356C5.95907 0.370359 5.98054 0.44123 5.98662 0.513923C5.9927 0.586617 5.98327 0.659708 5.95887 0.729024C5.93447 0.798339 5.89558 0.862523 5.84441 0.917909L1.38714 5.73628L5.84282 10.5547C5.89703 10.6095 5.93878 10.6739 5.9656 10.744C5.99242 10.8142 6.00375 10.8886 5.99891 10.9628C5.99408 11.0371 5.97319 11.1097 5.93748 11.1763C5.90177 11.2429 5.85197 11.3022 5.79104 11.3507C5.7301 11.3991 5.65929 11.4357 5.58279 11.4582C5.5063 11.4808 5.4257 11.4889 5.34577 11.482C5.26584 11.4751 5.18823 11.4534 5.11754 11.4181C5.04685 11.3829 4.98453 11.3348 4.93428 11.2768L0.144087 6.09736Z" fill="#4E5968"/>
</svg>
