<svg width="30" height="31" viewBox="0 0 30 31" fill="none" xmlns="http://www.w3.org/2000/svg">
<g id="ph:x-bold">
<path id="Vector" d="M24.4326 22.9435C24.6968 23.2076 24.8452 23.5659 24.8452 23.9395C24.8452 24.3132 24.6968 24.6715 24.4326 24.9356C24.1684 25.1998 23.8101 25.3482 23.4365 25.3482C23.0629 25.3482 22.7046 25.1998 22.4404 24.9356L15.0002 17.4931L7.55761 24.9333C7.29343 25.1975 6.93513 25.3459 6.56152 25.3459C6.18791 25.3459 5.82961 25.1975 5.56543 24.9333C5.30125 24.6691 5.15283 24.3108 5.15283 23.9372C5.15283 23.5636 5.30125 23.2053 5.56543 22.9411L13.008 15.5009L5.56777 8.0583C5.30359 7.79412 5.15518 7.43581 5.15518 7.0622C5.15518 6.6886 5.30359 6.33029 5.56777 6.06611C5.83195 5.80193 6.19026 5.65352 6.56386 5.65352C6.93747 5.65352 7.29578 5.80193 7.55996 6.06611L15.0002 13.5087L22.4428 6.06494C22.7069 5.80076 23.0653 5.65234 23.4389 5.65234C23.8125 5.65234 24.1708 5.80076 24.435 6.06494C24.6991 6.32912 24.8476 6.68743 24.8476 7.06103C24.8476 7.43464 24.6991 7.79295 24.435 8.05713L16.9924 15.5009L24.4326 22.9435Z" fill="#4E555B"/>
</g>
</svg>
