<svg width="10" height="10" viewBox="0 0 10 10" fill="none" xmlns="http://www.w3.org/2000/svg">
<path fill-rule="evenodd" clip-rule="evenodd" d="M7.80468 0.112607C7.87681 0.0405047 7.97462 0 8.0766 0C8.17859 0 8.2764 0.0405047 8.34853 0.112607L9.887 1.65102C9.92282 1.68675 9.95124 1.72919 9.97063 1.77592C9.99002 1.82264 10 1.87273 10 1.92332C10 1.97391 9.99002 2.024 9.97063 2.07073C9.95124 2.11745 9.92282 2.15989 9.887 2.19562L6.85467 5.22784C6.79622 5.28649 6.72869 5.33532 6.65467 5.37245L3.63388 6.8824C3.56173 6.91841 3.4801 6.93084 3.40051 6.91792C3.32092 6.90501 3.2474 6.86741 3.19034 6.81044C3.13328 6.75347 3.09557 6.68001 3.08254 6.60045C3.06951 6.52088 3.08182 6.43923 3.11772 6.36703L4.62773 3.34559C4.66486 3.27157 4.71369 3.20404 4.77235 3.14559L7.80468 0.112607ZM8.07699 0.928736L5.31543 3.69019L4.51773 5.28707L4.71312 5.48244L6.31082 4.68401L9.07161 1.92332L8.07699 0.928736ZM6.1539 0.76951L5.38466 1.53872H2.23079C1.90155 1.53872 1.67694 1.53872 1.50463 1.55333C1.3354 1.56718 1.24924 1.59179 1.18924 1.62256C1.04451 1.69631 0.926832 1.81398 0.853084 1.9587C0.822314 2.0187 0.797699 2.10485 0.783853 2.27408C0.769237 2.44638 0.769237 2.67099 0.769237 3.00021V7.7693C0.769237 8.09852 0.769237 8.32313 0.783853 8.49543C0.797699 8.66466 0.822314 8.75081 0.853084 8.81081C0.926832 8.95553 1.04451 9.0732 1.18924 9.14695C1.24924 9.17772 1.3354 9.20233 1.50463 9.21618C1.67771 9.23079 1.90155 9.23079 2.23079 9.23079H7.00006C7.32929 9.23079 7.55391 9.23079 7.72622 9.21618C7.89545 9.20233 7.9816 9.17772 8.0416 9.14695C8.18634 9.0732 8.30401 8.95553 8.37776 8.81081C8.40853 8.75081 8.43315 8.66466 8.44699 8.49543C8.46161 8.32236 8.46161 8.09852 8.46161 7.7693V4.61555L9.23084 3.84634V7.78468C9.23084 8.09467 9.23084 8.35005 9.21392 8.55851C9.19623 8.77465 9.15854 8.97388 9.06315 9.16003C8.91565 9.44948 8.68031 9.68482 8.39084 9.83231C8.20391 9.92769 8.00545 9.96539 7.78929 9.98308C7.5816 10 7.32544 10 7.01621 10H2.2154C1.9054 10 1.65001 10 1.44155 9.98308C1.22539 9.96539 1.02616 9.92769 0.840007 9.83231C0.550537 9.68482 0.31519 9.44948 0.167694 9.16003C0.0723082 8.97311 0.0346157 8.77465 0.0169233 8.55851C5.73126e-08 8.35082 0 8.09467 0 7.78468V2.98483C0 2.67484 5.73126e-08 2.41946 0.0169233 2.211C0.0346157 1.99486 0.0723082 1.79563 0.167694 1.60948C0.31519 1.32003 0.550537 1.08469 0.840007 0.937197C1.02693 0.841815 1.22539 0.804124 1.44155 0.786433C1.64924 0.76951 1.9054 0.76951 2.2154 0.76951H2.23079H6.1539Z" fill="#888888"/>
</svg>
