<svg width="20" height="20" viewBox="0 0 20 20" fill="none" xmlns="http://www.w3.org/2000/svg">
<path d="M2.5 10.8333C5.5 4.16665 14.5 4.16665 17.5 10.8333" stroke="#A1A1AA" stroke-width="2" stroke-linecap="round" stroke-linejoin="round"/>
<path d="M10 14.1666C9.6717 14.1666 9.34661 14.102 9.04329 13.9763C8.73998 13.8507 8.46438 13.6665 8.23223 13.4344C8.00009 13.2022 7.81594 12.9266 7.6903 12.6233C7.56466 12.32 7.5 11.9949 7.5 11.6666C7.5 11.3383 7.56466 11.0132 7.6903 10.7099C7.81594 10.4066 8.00009 10.131 8.23223 9.89886C8.46438 9.66671 8.73998 9.48256 9.04329 9.35693C9.34661 9.23129 9.6717 9.16663 10 9.16663C10.663 9.16663 11.2989 9.43002 11.7678 9.89886C12.2366 10.3677 12.5 11.0036 12.5 11.6666C12.5 12.3297 12.2366 12.9656 11.7678 13.4344C11.2989 13.9032 10.663 14.1666 10 14.1666Z" stroke="#A1A1AA" stroke-width="2" stroke-linecap="round" stroke-linejoin="round"/>
<mask id="path-3-outside-1_10_19" maskUnits="userSpaceOnUse" x="1.10576" y="3.16653" width="15.5563" height="15.5563" fill="black">
<rect fill="white" x="1.10576" y="3.16653" width="15.5563" height="15.5563"/>
<path d="M16.157 16.0965C16.436 16.3754 16.436 16.8277 16.157 17.1066V17.1066C15.8781 17.3856 15.4258 17.3856 15.1469 17.1066L3.36177 5.32153C3.08282 5.04258 3.08282 4.59032 3.36177 4.31137V4.31137C3.64071 4.03243 4.09297 4.03243 4.37192 4.31137L16.157 16.0965Z"/>
</mask>
<path d="M16.157 16.0965C16.436 16.3754 16.436 16.8277 16.157 17.1066V17.1066C15.8781 17.3856 15.4258 17.3856 15.1469 17.1066L3.36177 5.32153C3.08282 5.04258 3.08282 4.59032 3.36177 4.31137V4.31137C3.64071 4.03243 4.09297 4.03243 4.37192 4.31137L16.157 16.0965Z" fill="#A1A1AA"/>
<path d="M16.6621 16.6016L15.652 17.6117L16.6621 16.6016ZM2.85669 4.81645L3.86684 3.8063L2.85669 4.81645ZM3.86684 3.8063L16.6621 16.6016L3.86684 3.8063ZM16.157 17.1066C15.4876 17.7761 14.4021 17.7761 13.7327 17.1066L3.36177 6.73574C2.6923 6.06627 2.6923 4.98084 3.36177 4.31137L3.36177 4.31137C3.43128 4.24186 3.51439 4.18745 3.60589 4.15154L15.854 16.3995L16.317 16.8626C16.281 16.954 16.2265 17.0371 16.157 17.1066L16.157 17.1066Z" fill="#FAFAFA" mask="url(#path-3-outside-1_10_19)"/>
</svg>
