<svg width="92" height="92" viewBox="0 0 92 92" fill="none" xmlns="http://www.w3.org/2000/svg">
<path d="M57.5 30.6667H57.5383M47.9167 80.5H23C19.95 80.5 17.0249 79.2884 14.8683 77.1317C12.7116 74.9751 11.5 72.05 11.5 69V23C11.5 19.95 12.7116 17.0249 14.8683 14.8683C17.0249 12.7116 19.95 11.5 23 11.5H69C72.05 11.5 74.9751 12.7116 77.1317 14.8683C79.2884 17.0249 80.5 19.95 80.5 23V47.9167" stroke="#80828B" stroke-width="10" stroke-linecap="round" stroke-linejoin="round"/>
<path d="M11.5 61.3317L30.6667 42.165C34.224 38.7419 38.6093 38.7419 42.1667 42.165L57.5 57.4984" stroke="#80828B" stroke-width="10" stroke-linecap="round" stroke-linejoin="round"/>
<path d="M53.667 53.6648L57.5003 49.8315C60.0687 47.3628 63.0587 46.6728 65.8647 47.7615M61.3337 72.8315H84.3337M72.8337 61.3315V84.3315" stroke="#80828B" stroke-width="10" stroke-linecap="round" stroke-linejoin="round"/>
</svg>
