<svg width="16" height="17" viewBox="0 0 16 17" fill="none" xmlns="http://www.w3.org/2000/svg">
<path d="M9.33464 7.16667V11.8333M6.66797 7.16667V11.8333M4.0013 4.5V12.3667C4.0013 13.1134 4.0013 13.4865 4.14663 13.7717C4.27446 14.0226 4.47828 14.227 4.72917 14.3548C5.0141 14.5 5.3873 14.5 6.13258 14.5H9.87003C10.6153 14.5 10.988 14.5 11.2729 14.3548C11.5238 14.227 11.7283 14.0226 11.8561 13.7717C12.0013 13.4868 12.0013 13.114 12.0013 12.3687V4.5M4.0013 4.5H5.33464M4.0013 4.5H2.66797M5.33464 4.5H10.668M5.33464 4.5C5.33464 3.87874 5.33464 3.56827 5.43613 3.32324C5.57145 2.99654 5.83085 2.73682 6.15755 2.60149C6.40258 2.5 6.71338 2.5 7.33464 2.5H8.66797C9.28922 2.5 9.59985 2.5 9.84488 2.60149C10.1716 2.73682 10.4311 2.99654 10.5664 3.32324C10.6679 3.56827 10.668 3.87875 10.668 4.5M10.668 4.5H12.0013M12.0013 4.5H13.3346" stroke="black" stroke-linecap="round" stroke-linejoin="round"/>
</svg>
