<svg width="25" height="25" viewBox="0 0 25 25" fill="none" xmlns="http://www.w3.org/2000/svg">
<g clip-path="url(#clip0_967_4692)">
<path d="M14.875 2.08203C15.3122 2.08214 15.7384 2.21983 16.093 2.47558C16.4477 2.73133 16.7129 3.09219 16.851 3.50703L17.4167 5.20703H20.8333C21.1096 5.20703 21.3746 5.31678 21.5699 5.51213C21.7653 5.70748 21.875 5.97243 21.875 6.2487C21.875 6.52497 21.7653 6.78992 21.5699 6.98527C21.3746 7.18062 21.1096 7.29037 20.8333 7.29037L20.8302 7.36432L19.9271 20.0133C19.8707 20.8014 19.5179 21.5389 18.9396 22.0774C18.3613 22.6159 17.6006 22.9153 16.8104 22.9154H8.18958C7.39943 22.9153 6.63865 22.6159 6.06038 22.0774C5.48211 21.5389 5.12928 20.8014 5.07292 20.0133L4.16979 7.36328C4.16791 7.33902 4.16686 7.3147 4.16667 7.29037C3.8904 7.29037 3.62545 7.18062 3.4301 6.98527C3.23475 6.78992 3.125 6.52497 3.125 6.2487C3.125 5.97243 3.23475 5.70748 3.4301 5.51213C3.62545 5.31678 3.8904 5.20703 4.16667 5.20703H7.58333L8.14896 3.50703C8.28718 3.09202 8.55254 2.73104 8.90739 2.47528C9.26225 2.21951 9.68861 2.08193 10.126 2.08203H14.875ZM18.7469 7.29037H6.25312L7.15104 19.8643C7.16974 20.127 7.28727 20.3729 7.47996 20.5525C7.67265 20.732 7.9262 20.8319 8.18958 20.832H16.8104C17.0738 20.8319 17.3273 20.732 17.52 20.5525C17.7127 20.3729 17.8303 20.127 17.849 19.8643L18.7469 7.29037ZM10.4167 10.4154C10.6718 10.4154 10.9181 10.5091 11.1087 10.6786C11.2994 10.8482 11.4212 11.0818 11.451 11.3352L11.4583 11.457V16.6654C11.458 16.9309 11.3564 17.1862 11.1741 17.3793C10.9919 17.5723 10.7428 17.6885 10.4777 17.7041C10.2127 17.7196 9.95169 17.6334 9.74809 17.463C9.54449 17.2926 9.41365 17.0509 9.38229 16.7872L9.375 16.6654V11.457C9.375 11.1808 9.48475 10.9158 9.6801 10.7205C9.87545 10.5251 10.1404 10.4154 10.4167 10.4154ZM14.5833 10.4154C14.8596 10.4154 15.1246 10.5251 15.3199 10.7205C15.5153 10.9158 15.625 11.1808 15.625 11.457V16.6654C15.625 16.9416 15.5153 17.2066 15.3199 17.4019C15.1246 17.5973 14.8596 17.707 14.5833 17.707C14.3071 17.707 14.0421 17.5973 13.8468 17.4019C13.6514 17.2066 13.5417 16.9416 13.5417 16.6654V11.457C13.5417 11.1808 13.6514 10.9158 13.8468 10.7205C14.0421 10.5251 14.3071 10.4154 14.5833 10.4154ZM14.875 4.16536H10.125L9.77812 5.20703H15.2219L14.875 4.16536Z" fill="#B2B2B2"/>
</g>
<defs>
<clipPath id="clip0_967_4692">
<rect width="25" height="25" fill="white"/>
</clipPath>
</defs>
</svg>
